<?xml version="1.0" standalone="no"?>
<!DOCTYPE svg PUBLIC "-//W3C//DTD SVG 1.1//EN" "http://www.w3.org/Graphics/SVG/1.1/DTD/svg11.dtd" >
<svg xmlns="http://www.w3.org/2000/svg" xmlns:xlink="http://www.w3.org/1999/xlink" version="1.1">
<metadata>
Created by FontForge 20170731 at Mon Apr 30 13:11:24 2007
 By Aleksey,,,
(c) COPYRIGHT H. BERTHOLD AG 1993 Alle Rechte vorbehalten.
</metadata>
<defs>
<font id="FrutigerBQ-Roman" horiz-adv-x="667" >
  <font-face 
    font-family="Frutiger BQ"
    font-weight="500"
    font-stretch="normal"
    units-per-em="1000"
    panose-1="0 0 0 0 0 0 0 0 0 0"
    ascent="800"
    descent="-200"
    x-height="517"
    cap-height="701"
    bbox="-127 -262 892 935"
    underline-thickness="50"
    underline-position="-200"
    unicode-range="U+0020-FB02"
  />
<missing-glyph horiz-adv-x="271" 
 />
    <glyph glyph-name=".notdef" horiz-adv-x="271" 
 />
    <glyph glyph-name=".null" horiz-adv-x="0" 
 />
    <glyph glyph-name="nonmarkingreturn" horiz-adv-x="333" 
 />
    <glyph glyph-name="space" unicode=" " horiz-adv-x="271" 
 />
    <glyph glyph-name="exclam" unicode="!" horiz-adv-x="229" 
d="M193 701l-15 -504h-86l-14 504h115zM83 108h107v-107h-107v107z" />
    <glyph glyph-name="quotedbl" unicode="&#x22;" horiz-adv-x="396" 
d="M303 434h-23l-39 245q-3 21 0 32q4 18 19 28t34 10q16 0 30 -8.5t18 -22.5q3 -10 1 -27zM115 434h-23l-39 245q-2 21 0 32q4 18 19.5 28t34.5 10q16 0 29.5 -8.5t17.5 -22.5q3 -13 2 -27z" />
    <glyph glyph-name="numbersign" unicode="#" 
d="M417 0h-79l33 229h-111l-33 -229h-81l35 229h-139v77h149l16 108h-142v77h152l31 214h80l-31 -214h110l32 214h78l-30 -214h138v-77h-148l-16 -108h139v-77h-150zM382 306l15 108h-111l-16 -108h112z" />
    <glyph glyph-name="dollar" unicode="$" horiz-adv-x="521" 
d="M233 706v84h50v-82q61 -6 88.5 -11t78.5 -21l-9 -92q-50 21 -75.5 27.5t-80.5 13.5v-213q46 -16 60 -22q149 -59 149 -182q0 -62 -34 -113.5t-89 -77.5q-28 -13 -91 -23v-88h-53v86q-64 4 -94 9.5t-91 24.5l8 100q54 -24 83 -31.5t93 -13.5v246q-98 41 -127 63
q-30 23 -48 58t-18 72q0 45 27 89q28 45 67 64t106 33zM229 432l-1 188q-30 -9 -48.5 -19.5t-31.5 -31.5q-13 -23 -13 -42q0 -15 10 -34q21 -37 84 -61zM278 311v-230l30 9q51 19 71 56q12 22 12 46q0 25 -13 48q-16 27 -39.5 42t-60.5 29z" />
    <glyph glyph-name="percent" unicode="%" horiz-adv-x="833" 
d="M26 479v41q5 104 58 155q38 38 92 38q46 0 84 -32q66 -54 66 -183q0 -64 -9.5 -112t-40.5 -84q-37 -45 -97 -45q-30 0 -58 12q-75 33 -91 143q-4 26 -4 67zM98 484q-2 -99 32 -143q18 -25 45 -25t45 21q35 42 35 150q0 39 -6 75q-9 52 -34 73q-19 16 -39 16
q-33 0 -52 -32q-25 -38 -26 -135zM543 707h60l-320 -706h-56zM503 234q2 65 15 110.5t50 74.5q38 29 84 29q74 0 114 -66q34 -54 34 -164q0 -71 -12 -119t-52 -81q-39 -30 -84 -30q-74 0 -116 68q-39 62 -33 178zM575 223q-2 -73 14 -119q9 -24 22 -37q18 -18 39 -18
q81 0 81 168q0 52 -11 97q-14 46 -37 62q-17 10 -32 10q-28 0 -49 -28q-27 -39 -27 -135z" />
    <glyph glyph-name="ampersand" unicode="&#x26;" horiz-adv-x="646" 
d="M320 378l138 -165q3 6 9 18.5t9 18.5q20 49 28 133h91q-8 -86 -20.5 -125.5t-55.5 -115.5l118 -142h-124l-56 70q-3 -3 -6 -5.5t-7.5 -6t-6.5 -5.5q-82 -62 -175 -62q-65 0 -121 27t-86 77q-27 48 -27 105q0 65 39 115q34 42 119 82q-26 31 -38.5 49.5t-24.5 49t-12 62.5
q0 36 16 65q22 43 66 66.5t94 23.5q70 0 121 -35q59 -40 59 -115q0 -80 -81 -142q-17 -13 -66 -43zM402 137l-165 201q-53 -30 -78 -58t-25 -78q0 -35 12 -57q10 -23 27.5 -39t37 -22t32.5 -8.5t25 -2.5q22 0 43 6q41 12 91 58zM269 434q41 27 62 45q43 34 43 79q0 18 -8 34
q-24 41 -76 41q-16 0 -32 -7q-22 -8 -36.5 -28t-14.5 -43q0 -44 62 -121z" />
    <glyph glyph-name="quotesingle" unicode="'" horiz-adv-x="208" 
d="M115 434h-23l-39 245q-2 21 0 32q4 18 19.5 28t34.5 10q16 0 29.5 -8.5t17.5 -22.5q3 -13 2 -27z" />
    <glyph glyph-name="parenleft" unicode="(" horiz-adv-x="292" 
d="M195 766h90q-69 -130 -110 -234q-41 -128 -41 -213q0 -45 10 -97.5t20.5 -87t30.5 -93.5l86 -176l-86 1q-31 49 -56 92q-27 48 -48 91q-23 59 -33.5 91t-20 80.5t-9.5 97.5q0 67 17 137q20 81 54.5 148t95.5 163z" />
    <glyph glyph-name="parenright" unicode=")" horiz-adv-x="292" 
d="M97 -138l-89 1q54 94 95 187q3 9 9 25t8 21q42 111 42 220q0 87 -39 210q-48 115 -97 204l-19 33h92q67 -106 98 -170q67 -137 67 -278q0 -176 -104 -357q-30 -50 -63 -96z" />
    <glyph glyph-name="asterisk" unicode="*" horiz-adv-x="458" 
d="M45 602l154 -60l-20 159h86l-11 -158l148 65l28 -83l-160 -36l111 -118l-69 -53l-85 135l-83 -139l-71 47l107 126l-160 33z" />
    <glyph glyph-name="plus" unicode="+" 
d="M372 0h-80v251h-249v80h249v249h80v-249h252v-80h-252v-251z" />
    <glyph glyph-name="comma" unicode="," horiz-adv-x="187" 
d="M52 114h113l-89 -246h-88z" />
    <glyph glyph-name="hyphen" unicode="-" horiz-adv-x="313" 
d="M23 299h258v-74h-258v74z" />
    <glyph glyph-name="period" unicode="." horiz-adv-x="187" 
d="M37 112h111v-110h-111v110z" />
    <glyph glyph-name="slash" unicode="/" horiz-adv-x="354" 
d="M264 698h80l-263 -697h-79z" />
    <glyph glyph-name="zero" unicode="0" horiz-adv-x="542" 
d="M32 361q0 31 1 46q9 203 116 274q51 36 118 36q121 0 187 -113q50 -86 50 -240q0 -75 -9 -134q-19 -132 -95 -194q-58 -46 -131 -46q-119 0 -184 109q-55 95 -53 262zM135 346q1 -144 37 -211q18 -35 45.5 -50.5t50.5 -15.5q55 0 92 58q45 71 45 219q0 101 -22 179
q-23 83 -78 103q-14 7 -37 7q-33 0 -60.5 -21.5t-41.5 -53.5q-34 -74 -31 -214z" />
    <glyph glyph-name="one" unicode="1" horiz-adv-x="542" 
d="M250 706h87v-703h-100q2 208 0 313q-2 122 -1 183q0 16 2 48t2 48l-110 -93l-55 65z" />
    <glyph glyph-name="two" unicode="2" horiz-adv-x="542" 
d="M68 585l-12 88q122 43 185 43q105 0 170 -56q61 -55 61 -143q0 -28 -10 -59t-20 -49.5t-31 -53.5q-42 -54 -62.5 -77.5t-67.5 -69.5l-145 -128h348v-79h-446l1 109q80 67 117 102.5t107 112.5q28 34 45.5 57t36 62t18.5 70q0 25 -10 47q-29 69 -127 69q-58 0 -158 -45z
" />
    <glyph glyph-name="three" unicode="3" horiz-adv-x="542" 
d="M123 326v84q91 0 134 12q98 29 98 107q0 30 -18 56q-37 52 -129 52q-69 0 -152 -36l-6 85q120 30 185 30q49 0 93 -14q60 -19 96 -63t36 -107q0 -98 -89 -143q-26 -12 -65 -21q2 0 13 -2.5t26.5 -7.5t25.5 -10q46 -22 71 -64.5t25 -95.5q0 -95 -79 -150q-70 -48 -188 -48
q-72 0 -172 29l6 90q116 -38 176 -38q93 0 131 61q20 30 20 66q-2 76 -81 110q-46 20 -157 18z" />
    <glyph glyph-name="four" unicode="4" horiz-adv-x="542" 
d="M16 241l279 465h119v-468h87v-82h-85v-155h-100v155h-300v85zM324 609l-210 -372h205z" />
    <glyph glyph-name="five" unicode="5" horiz-adv-x="542" 
d="M76 338l5 365h387v-81h-293l-6 -188q59 9 91 9q85 0 145 -46q84 -64 84 -172q0 -103 -66 -166q-73 -70 -208 -70q-58 0 -146 24l5 91q88 -34 142 -34q44 0 78 15q26 11 45 29t27 37.5t11.5 35t3.5 28.5q0 61 -43 102q-49 44 -135 44q-48 0 -127 -23z" />
    <glyph glyph-name="six" unicode="6" horiz-adv-x="542" 
d="M479 690l-15 -88q-81 32 -126 32q-55 0 -97 -27q-31 -19 -56 -58q-34 -54 -47 -171q3 3 9.5 8.5t11.5 10t9 8.5q51 44 124 44q91 0 147 -53q25 -24 46.5 -67.5t21.5 -102.5q0 -76 -41 -139q-62 -97 -191 -97q-108 0 -170 82q-64 85 -64 236q0 159 46 259q17 35 42 65
q24 28 58 49q29 17 66 25q38 10 81 10q57 0 145 -26zM150 238q0 -15 -0.5 -36.5t13 -53.5t40.5 -54q32 -26 71 -26q32 0 57 15q35 20 53.5 57.5t18.5 81.5q0 34 -11 61q-15 38 -46 62.5t-69 24.5q-26 0 -53 -12q-65 -30 -74 -120z" />
    <glyph glyph-name="seven" unicode="7" horiz-adv-x="542" 
d="M38 705l446 -1v-46v-32q-1 -4 -11 -35l-253 -590h-111l274 623h-345v81z" />
    <glyph glyph-name="eight" unicode="8" horiz-adv-x="542" 
d="M181 380q-37 15 -57 28q-32 21 -51 57t-19 76q0 83 63 130q59 45 165 45q121 0 185 -78q34 -43 34 -91q0 -37 -15 -67q-15 -35 -42.5 -57t-73.5 -47q51 -25 71 -41q70 -57 70 -146q0 -52 -27 -99q-59 -101 -211 -101q-132 0 -201 81q-47 59 -47 119q0 39 18 77
q14 30 37.5 52.5t42.5 33t58 28.5zM253 336q-30 -16 -46.5 -26.5t-36.5 -30t-31 -43.5q-12 -28 -12 -49q2 -26 13 -48q18 -36 53.5 -56t76.5 -20q22 0 47 7q12 3 24 9t28.5 18.5t27 34t10.5 48.5q0 42 -26 75q-15 19 -40 36t-39.5 24t-48.5 21zM300 408q20 14 30 22
q69 55 69 114q0 31 -25 57q-37 40 -96 40q-22 0 -40 -5q-80 -25 -80 -89q0 -43 31.5 -70.5t110.5 -68.5z" />
    <glyph glyph-name="nine" unicode="9" horiz-adv-x="542" 
d="M60 13l14 87q79 -30 124 -30q94 0 147 76q18 26 29 60t14.5 57.5t8.5 65.5q-20 -20 -31 -29q-50 -43 -120 -43q-95 0 -155 62q-62 65 -62 165q0 48 17 88q26 67 83.5 105t128.5 38q98 0 158 -63q78 -82 78 -272q0 -176 -68 -278q-21 -35 -53 -61q-64 -53 -170 -53
q-60 0 -143 25zM132 497q-4 -90 57 -136q30 -24 69 -24q27 0 53 11q37 17 56.5 55.5t19.5 83.5q0 27 -10 60q-15 39 -47 64.5t-72 25.5q-19 0 -41 -8q-26 -9 -44 -28t-26 -40.5t-11 -36.5t-4 -27z" />
    <glyph glyph-name="colon" unicode=":" horiz-adv-x="208" 
d="M71 113h111v-110h-111v110zM71 516h112v-109h-112v109z" />
    <glyph glyph-name="semicolon" unicode=";" horiz-adv-x="208" 
d="M83 110h113l-89 -246h-87zM74 514h109v-109h-109v109z" />
    <glyph glyph-name="less" unicode="&#x3c;" 
d="M667 -3l-667 313v86l667 313v-86l-567 -270l567 -270v-86z" />
    <glyph glyph-name="equal" unicode="=" 
d="M667 162h-667v78h667v-78zM667 342h-667v79h667v-79z" />
    <glyph glyph-name="greater" unicode="&#x3e;" 
d="M0 -3v86l567 270l-567 270v86l667 -313v-86z" />
    <glyph glyph-name="question" unicode="?" horiz-adv-x="479" 
d="M276 199h-88q1 47 7 75t28 61q13 20 41.5 52.5t38.5 46.5q32 46 32 90q0 23 -8 39q-29 60 -114 60q-52 0 -151 -37l-7 95q105 32 167 32q75 0 128 -29q88 -50 88 -148q0 -24 -7 -50q-7 -28 -24 -57t-27 -41.5t-41 -47.5q-39 -49 -47 -65q-12 -23 -16 -76zM180 109h104
v-107h-104v107z" />
    <glyph glyph-name="at" unicode="@" horiz-adv-x="896" 
d="M565 433l15 62h68l-33 -150q-29 -143 -28 -171q0 -44 30 -44q25 0 59 34q33 36 63 103.5t30 153.5q0 63 -21 108q-19 43 -51.5 71.5t-69 39.5t-59.5 14.5t-44 3.5q-82 0 -158 -36q-109 -52 -175 -159t-66 -228q0 -76 26 -133q38 -85 120.5 -128t180.5 -43q143 0 269 90
q27 19 66 56l32 -41q-38 -39 -80 -67q-135 -93 -286 -93q-137 0 -243 71q-44 30 -74 72q-67 88 -67 216q0 162 97 292q21 29 48 55t72 58.5t109 52t136 19.5q107 0 181 -51q115 -77 115 -237q0 -31 -4 -59q-22 -148 -104 -233q-62 -62 -124 -62q-58 0 -76 49q-6 16 -7 36
q-6 -8 -25 -31q-55 -53 -117 -53q-30 0 -55 12q-76 37 -76 150q0 71 29 138.5t82 108.5q47 38 100 37q64 0 99 -53q6 -9 16 -31zM540 348q1 54 -25 80t-58 26q-30 -1 -61 -24q-37 -30 -57.5 -85t-20.5 -108t24 -77t56 -24q30 0 61 23q33 26 53 71.5t24 72.5t4 45z" />
    <glyph glyph-name="A" unicode="A" horiz-adv-x="708" 
d="M293 705h107l306 -704h-116l-74 179h-341l-73 -177h-107zM208 260l277 1q-44 108 -67 163q-24 57 -41 101q-16 42 -33 94q-28 -85 -34 -102q-5 -13 -54 -133q-13 -32 -48 -124z" />
    <glyph glyph-name="B" unicode="B" horiz-adv-x="562" 
d="M64 702h214q38 -2 56 -5q83 -10 129 -75q32 -45 31 -97q0 -45 -21 -82t-59 -58q-20 -11 -65 -24q45 -9 70 -20q96 -44 96 -153q0 -88 -74 -144q-24 -18 -55 -28t-53 -12t-63 -3h-206v701zM160 623l1 -216h96q40 1 60 8q32 11 53.5 40t21.5 61q0 24 -10 43q-26 49 -92 60
q-24 4 -130 4zM160 326l1 -243q64 -3 106 -0.5t69 13.5q75 29 75 104q0 26 -12 49q-28 56 -102 69q-29 5 -137 8z" />
    <glyph glyph-name="C" unicode="C" horiz-adv-x="604" 
d="M585 675l-10 -95q-36 17 -55.5 25.5t-48.5 15t-60 6.5q-56 0 -111 -21t-92 -59q-69 -70 -69 -192q0 -99 53 -169q79 -106 225 -106q51 0 143 24l2 -96q-63 -17 -130 -17q-186 0 -293 95q-110 100 -110 264q0 140 77 234q51 62 131 96.5t165 34.5q72 0 183 -40z" />
    <glyph glyph-name="D" unicode="D" horiz-adv-x="688" 
d="M64 703h132q41 2 82 0q23 -2 79 -8q77 -18 120 -41q79 -44 125.5 -127t46.5 -176q0 -47 -12 -92q-6 -21 -16 -44t-29 -55.5t-51.5 -62.5t-73.5 -51q-55 -28 -129 -38q-73 -7 -133 -8q-23 0 -141 2v701zM161 618l1 -531q46 -2 91 0q70 2 120.5 15t92.5 50q79 70 79 195
q-1 88 -37 144.5t-79 83.5q-36 24 -83.5 34.5t-91.5 10t-93 -1.5z" />
    <glyph glyph-name="E" unicode="E" horiz-adv-x="500" 
d="M64 704h390v-86h-289v-211h268v-86h-269v-233h297v-88h-397v704z" />
    <glyph glyph-name="F" unicode="F" horiz-adv-x="458" 
d="M64 705h371v-85h-270v-211h260v-86h-261v-321h-100v703z" />
    <glyph glyph-name="G" unicode="G" horiz-adv-x="688" 
d="M608 682l-7 -98q-54 26 -90 36.5t-85 10.5q-112 0 -190 -60q-47 -37 -73 -94.5t-26 -122.5q0 -71 30 -133.5t85 -97.5q74 -48 165 -48q29 0 104 15v206h-150v82h249v-356q-140 -33 -214 -33q-86 0 -158 28q-27 10 -52.5 25t-56.5 43.5t-54 64t-38.5 88.5t-15.5 115
q0 164 100 259q108 103 279 104q73 0 198 -34z" />
    <glyph glyph-name="H" unicode="H" 
d="M64 704h99v-293h337v293h99v-706h-98v326h-336v-322h-101v702z" />
    <glyph glyph-name="I" unicode="I" horiz-adv-x="229" 
d="M65 701h98v-700h-98v700z" />
    <glyph glyph-name="J" unicode="J" horiz-adv-x="354" 
d="M184 201v503h100v-517q-5 -91 -41 -135q-51 -61 -141 -61q-32 0 -94 14l1 85q36 -12 72 -12q41 0 64.5 21t31.5 46q5 14 7 56z" />
    <glyph glyph-name="K" unicode="K" horiz-adv-x="604" 
d="M65 701h99v-317l300 318h143q-35 -30 -101 -92q-70 -70 -104 -105q-8 -8 -11 -12l-123 -123l360 -370h-146q-82 85 -180 191q-62 68 -139 159v-349h-98v700z" />
    <glyph glyph-name="L" unicode="L" horiz-adv-x="500" 
d="M64 702h101v-614h293v-87h-394v701z" />
    <glyph glyph-name="M" unicode="M" horiz-adv-x="896" 
d="M63 704l165 -1q86 -213 132 -339q39 -103 89 -254q64 188 98 281q37 105 117 313h162v-704h-98q-1 195 0 388q4 182 8 272q-57 -170 -70 -204q-14 -39 -42 -112.5t-33 -87.5q-32 -85 -94 -255h-99q-44 120 -98 262q-62 158 -91 238q-8 24 -17 50.5t-20 58.5t-17 50v-658
h-92v702z" />
    <glyph glyph-name="N" unicode="N" horiz-adv-x="688" 
d="M65 702h132q106 -185 141 -244q94 -157 120 -205q27 -52 73 -158q-7 175 -8 314q0 98 2 292h92v-701h-124q-76 135 -133 231q-28 48 -86 142q-66 110 -122 246q7 -187 8 -336q0 -47 -0.5 -141t-0.5 -141h-94v701z" />
    <glyph glyph-name="O" unicode="O" horiz-adv-x="750" 
d="M32 364q5 150 86 244q33 36 77 62q80 46 173 46q75 -1 145 -29.5t115 -81.5q80 -95 80 -249q0 -111 -39.5 -186t-90.5 -114q-86 -66 -211 -66q-85 0 -154 32q-95 44 -140 136t-41 206zM136 350q0 -57 14 -105q23 -79 80 -128.5t137 -49.5q97 0 160 67q79 87 79 219
q0 142 -75 219q-28 28 -67 45q-45 21 -96 21q-86 0 -148 -63q-84 -84 -84 -225z" />
    <glyph glyph-name="P" unicode="P" horiz-adv-x="542" 
d="M163 283v-281h-99v701q158 4 276 -8q1 0 14.5 -3.5t29 -8.5t26.5 -10q48 -25 75 -73t27 -104q0 -52 -23 -98t-64 -74q-34 -22 -82.5 -32.5t-92 -10t-87.5 1.5zM164 620v-249q72 -3 73 -3q51 0 83.5 9.5t57.5 41.5q28 34 28 78q0 70 -69 103q-56 28 -173 20z" />
    <glyph glyph-name="Q" unicode="Q" horiz-adv-x="750" 
d="M523 21l168 -152h-131l-135 125q-48 -4 -71 -4q-61 0 -121.5 23t-104.5 66q-47 49 -71.5 120.5t-24.5 146.5q0 130 62 224q37 55 94 92q83 55 188 55q90 0 167.5 -42.5t120.5 -119.5q45 -85 45 -198q0 -182 -117 -286q-20 -19 -69 -50zM137 347q2 -161 102 -237
q54 -43 127 -43q22 0 51 6q63 12 108 59q31 32 57 88.5t26 132.5q0 107 -53 187q-66 99 -182 99q-37 0 -84 -18q-62 -28 -107.5 -94.5t-44.5 -179.5z" />
    <glyph glyph-name="R" unicode="R" horiz-adv-x="604" 
d="M438 286l132 -286h-116l-110 254q-10 19 -16.5 28t-27 20.5t-49.5 12.5q-27 1 -81 1v-314h-101v703q56 -1 113 0h94q37 -1 86 -8q37 -9 55 -17q40 -19 63.5 -52t28.5 -56.5t5 -45.5q0 -68 -39 -115q-13 -15 -31 -26.5t-32 -17t-40 -13.5q28 -15 39 -27t27 -41zM169 620
v-217q64 0 96 1q42 0 70 9q42 14 59 42.5t17 55.5q0 48 -44 84q-32 25 -93 25h-52q-53 -1 -53 0z" />
    <glyph glyph-name="S" unicode="S" horiz-adv-x="479" 
d="M415 685l-15 -88q-88 35 -145 35q-73 0 -101 -52q-13 -21 -13 -49q0 -16 8 -31t16 -23.5t25 -24.5l166 -100q23 -16 40 -38q37 -46 37 -114q0 -83 -53 -141q-64 -69 -184 -69q-58 0 -170 32l14 93q97 -41 153 -41q84 0 119 55q17 28 17 61q0 59 -63 102q-22 15 -69.5 38
t-69.5 37q-71 46 -88 121q-5 23 -5 44q0 69 45 118q62 66 178 66q68 -1 158 -31z" />
    <glyph glyph-name="T" unicode="T" horiz-adv-x="542" 
d="M-2 702h539v-86h-219v-614h-101v614h-219v86z" />
    <glyph glyph-name="U" unicode="U" 
d="M59 704h101v-418q3 -47 6.5 -70.5t18.5 -55.5t42 -53q42 -34 104 -34q90 0 136 67q18 26 26.5 61t10 58.5t1.5 66.5v378h98v-435q0 -4 -0.5 -12t-1 -14.5t-1.5 -12.5q-7 -93 -58 -154q-73 -86 -203 -86q-35 0 -55 4q-92 10 -152 72q-36 37 -53 85q-16 49 -20 156v397z
" />
    <glyph glyph-name="V" unicode="V" 
d="M552 701h108l-273 -700h-121l-266 701h111q58 -158 88 -237q8 -21 24.5 -64t24.5 -64q45 -118 80 -257q31 104 53 166q20 58 76 204q18 46 50.5 132.5t44.5 118.5z" />
    <glyph glyph-name="W" unicode="W" horiz-adv-x="854" 
d="M104 701l63 -258l42 -180q16 -75 31 -173q18 124 30 185q4 21 38 193q15 78 43 234h140q8 -42 25.5 -126t26.5 -126q28 -124 44 -215q13 -68 24 -145q18 114 26 151q6 28 19.5 79.5t17.5 69.5q13 55 37 165q24 98 37 147h100q-45 -165 -50 -188q-10 -41 -30 -124
t-31 -125q-21 -89 -67 -267l-123 1q-36 179 -49 239q-40 193 -42 205q-16 81 -34 200q-17 -112 -28 -182q-11 -58 -44 -218q-8 -41 -23.5 -122t-23.5 -121h-126l-177 701h104z" />
    <glyph glyph-name="X" unicode="X" 
d="M272 361l-243 342h116l186 -267l192 268h114l-240 -333l258 -370h-119l-200 302l-207 -300h-119z" />
    <glyph glyph-name="Y" unicode="Y" horiz-adv-x="646" 
d="M119 704l205 -311l206 311h118l-277 -405v-299h-99v299l-278 405h125z" />
    <glyph glyph-name="Z" unicode="Z" horiz-adv-x="562" 
d="M404 625l-360 -3v79h469l-1 -84l-138 -201q-12 -18 -56.5 -84.5t-69.5 -102.5q-22 -31 -106 -146h376v-82h-488v90q95 134 146 210q17 25 56.5 84t61.5 90q47 66 110 150z" />
    <glyph glyph-name="bracketleft" unicode="[" horiz-adv-x="271" 
d="M69 765h194v-64h-104v-770h103v-65h-193v899z" />
    <glyph glyph-name="backslash" unicode="\" horiz-adv-x="354" 
d="M248 0l-222 706h80l222 -706h-80z" />
    <glyph glyph-name="bracketright" unicode="]" horiz-adv-x="271" 
d="M11 -69h107v768h-106v66h197v-901h-198v67z" />
    <glyph glyph-name="asciicircum" unicode="^" horiz-adv-x="729" 
d="M587 336h-97l-124 260l-128 -260h-96l188 370h77z" />
    <glyph glyph-name="underscore" unicode="_" horiz-adv-x="500" 
d="M510 -216h-520v79h520v-79z" />
    <glyph glyph-name="grave" unicode="`" horiz-adv-x="271" 
d="M14 710l83 -133h-75l-136 133h128z" />
    <glyph glyph-name="a" unicode="a" horiz-adv-x="500" 
d="M75 402v81q3 1 11.5 6t12 6.5t12.5 5.5t14 6t14 5.5t16.5 5t18 3.5t20 3t22 2t25.5 1q86 0 139 -39q25 -19 39 -42q14 -24 24 -85v-361h-82v82q-38 -43 -65 -60q-47 -29 -113 -29q-112 0 -154 80q-19 35 -19 77q0 80 72 124q67 43 181 43q30 0 90 -4q0 57 -19 86
q-13 20 -41.5 36t-70.5 16q-57 0 -147 -49zM355 247q-36 3 -72 3q-71 0 -118 -23q-31 -15 -43 -36q-12 -19 -12 -43q0 -25 12 -43q25 -41 91 -41q20 0 51 9q67 28 85 98q6 25 6 76z" />
    <glyph glyph-name="b" unicode="b" horiz-adv-x="583" 
d="M54 757h95v-323q18 26 29 36q20 20 59.5 38.5t88.5 18.5q59 0 114 -33q108 -65 108 -239q0 -113 -54 -180q-14 -17 -32.5 -33.5t-57 -33t-80.5 -16.5q-74 0 -134 43q-14 10 -50 46v-81h-86v757zM150 272q-8 -109 64 -167q39 -32 87 -32q40 0 72 21q37 23 57.5 73
t20.5 101q0 62 -32 110q-45 68 -113 68q-40 0 -73 -20q-26 -14 -44 -36.5t-25.5 -47.5t-10 -40.5t-3.5 -29.5z" />
    <glyph glyph-name="c" unicode="c" horiz-adv-x="437" 
d="M396 509l-5 -84q-56 22 -92 22q-35 0 -64 -12q-42 -16 -76.5 -56.5t-34.5 -114.5q0 -47 16 -86q20 -48 60.5 -76t93.5 -28q42 0 111 28l7 -83q-82 -28 -132 -28q-58 0 -108 23q-24 11 -46.5 28.5t-47 46t-39 73t-14.5 98.5q0 72 27 127q30 64 95 102.5t138 38.5
q38 0 111 -19z" />
    <glyph glyph-name="d" unicode="d" horiz-adv-x="583" 
d="M429 447v311h96q1 -196 0 -394q-2 -167 0 -250q2 -76 4 -114h-90l-4 79q-26 -30 -38 -40q-59 -50 -145 -50q-61 0 -104 25.5t-66 52.5q-57 66 -57 190q0 67 19 117q25 68 83.5 110t130.5 42q73 0 130 -41q11 -8 41 -38zM125 259q-4 -117 75 -167q36 -23 75 -23
q42 2 77 23q80 50 80 170q0 105 -76 158q-38 25 -76 25q-71 0 -115 -56q-39 -48 -40 -130z" />
    <glyph glyph-name="e" unicode="e" horiz-adv-x="521" 
d="M493 233h-373q16 -63 27 -84q22 -38 63 -58.5t88 -20.5q59 0 153 46v-90q-107 -35 -167 -35q-100 0 -166 56q-44 36 -69 95.5t-25 121.5q0 107 67 183q33 39 79 59q42 19 99 19q32 0 65 -8q72 -20 111 -79q26 -37 36 -81q9 -42 12 -124zM120 306h276q-6 34 -10.5 52
t-18.5 40t-37 36q-32 19 -66 19q-56 0 -98 -45q-26 -30 -46 -102z" />
    <glyph glyph-name="f" unicode="f" horiz-adv-x="354" 
d="M-1 516h120q0 57 3 86q6 68 29 100.5t60 46.5q32 13 78 13q21 0 65 -4l-6 -81q-28 6 -45 6q-22 0 -43 -9q-30 -15 -39 -49.5t-8 -108.5h136v-73h-135v-441h-94v441h-121v73z" />
    <glyph glyph-name="g" unicode="g" horiz-adv-x="583" 
d="M429 439v80l90 -1v-118.5v-139v-118.5q-2 -147 -4 -168q-2 -18 -10 -54q-21 -50 -38 -73q-31 -39 -90 -58t-119 -19q-79 0 -194 37l10 89q70 -28 104.5 -37t72.5 -9q58 1 88.5 14t50.5 40q18 24 26 53.5t7.5 57t-1.5 59.5l-7 -8l-15 -15t-16 -14q-55 -44 -135 -44
q-62 0 -118 34q-106 64 -106 228q0 129 67 203q17 17 32 29q59 42 129 42q84 0 137 -45q16 -14 39 -45zM126 260q0 -124 74 -167q35 -19 73 -19q28 0 57 13q37 18 66.5 60t29.5 111q0 42 -13 82q-21 60 -62 85t-80 25q-40 0 -77 -29q-68 -52 -68 -161z" />
    <glyph glyph-name="h" unicode="h" horiz-adv-x="562" 
d="M56 757h94v-313q14 18 31 33q56 50 137 50q29 0 53 -7q74 -22 106 -83q14 -27 24 -95l3 -341h-94q2 180 1 231q-1 34 -5 102q-5 31 -13 50q-28 62 -99 62q-64 0 -107 -58q-13 -18 -20.5 -41.5t-9.5 -38.5t-5 -47v-259h-96v755z" />
    <glyph glyph-name="i" unicode="i" horiz-adv-x="208" 
d="M49 742h103v-102h-103v102zM55 518h94v-517h-94v517z" />
    <glyph glyph-name="j" unicode="j" horiz-adv-x="208" 
d="M55 -44v562l95 -1q-2 -205 0 -308q0 -16 1 -45.5t1.5 -53.5t0.5 -45q0 -61 -7 -147q-8 -41 -16 -58q-35 -75 -131 -75q-16 0 -54 5l5 75q46 0 66 12q17 9 25 25.5t14 53.5zM50 743h104v-103h-104v103z" />
    <glyph glyph-name="k" unicode="k" horiz-adv-x="500" 
d="M55 756h95v-453l211 214h128l-243 -226l272 -291h-134l-234 265v-263h-95v754z" />
    <glyph glyph-name="l" unicode="l" horiz-adv-x="208" 
d="M55 757h95v-755h-95v755z" />
    <glyph glyph-name="m" unicode="m" horiz-adv-x="854" 
d="M143 517l3 -74q4 4 10.5 11.5t12 13.5t10.5 11q50 47 120 47q78 0 118 -42q17 -17 38 -59q24 36 31 44q25 26 63.5 42t75.5 16q80 0 128 -63q17 -21 26 -48.5t10.5 -48t1.5 -56.5v-311h-91v33l-4 284q-1 28 -2.5 44t-11 35t-27.5 30q-24 18 -59 18q-53 0 -89 -53
q-25 -36 -33 -121v-269h-96v317q-2 30 -5 48t-15.5 39t-34.5 31q-22 9 -42 9q-70 0 -107 -78q-12 -24 -17 -52t-5 -53.5v-55.5v-204h-98v515h89z" />
    <glyph glyph-name="n" unicode="n" horiz-adv-x="562" 
d="M144 518v-74q1 1 7.5 8.5t14.5 15.5t16 15q57 45 138 45q95 0 150 -81q15 -24 23 -54.5t9 -51t1 -59.5v-281h-94l-3 333q0 1 -1 8t-2 11t-3.5 12.5t-5 14.5t-7 14.5t-9.5 14.5t-12.5 12.5t-16.5 11.5q-25 14 -55 14t-56 -14t-37.5 -26t-19.5 -25q-29 -43 -31 -135v-245
h-96v516h90z" />
    <glyph glyph-name="o" unicode="o" horiz-adv-x="583" 
d="M25 258q0 23 4 49.5t22.5 69.5t48.5 73q74 76 190 76q52 0 100 -18q50 -19 85 -53t49.5 -73t20 -67.5t5.5 -54.5q0 -63 -23 -115q-20 -49 -54.5 -82.5t-72.5 -48t-66 -19.5t-53 -5q-113 0 -183 69q-73 72 -73 199zM126 264q-4 -121 79 -173q36 -23 80 -23q41 0 77 21
q88 50 88 177q0 113 -81 162q-39 23 -78 23q-23 0 -51 -10q-42 -16 -76.5 -58.5t-37.5 -118.5z" />
    <glyph glyph-name="p" unicode="p" horiz-adv-x="583" 
d="M141 519v-94q30 38 47 54q53 48 135 48q105 0 170 -72q59 -68 59 -199q0 -154 -105 -225q-54 -40 -124 -40q-83 4 -134 47q-21 19 -44 56l3 -306h-92q-2 242 -2 363q0 31 1.5 111t0.5 123q0 21 -5 134h90zM150 273q-4 -115 70 -173q38 -28 82 -28q28 0 61 13
q30 15 50.5 42.5t28 59t10 50t2.5 33.5q0 32 -7 57q-14 50 -51.5 86t-85.5 36q-35 0 -71 -19q-80 -44 -89 -157z" />
    <glyph glyph-name="q" unicode="q" horiz-adv-x="583" 
d="M436 431v88h87v-734h-94v292q-8 -9 -36 -37q-59 -48 -142 -48q-78 0 -139 50q-87 71 -87 208q0 34 6 69q21 118 104 170q60 38 130 38q30 0 60 -9q35 -10 57.5 -29.5t53.5 -57.5zM126 261q-4 -105 62 -157q38 -31 86 -31q37 0 73 20q83 48 83 170q0 61 -29 108
q-20 33 -52.5 53.5t-68.5 20.5q-32 0 -61 -14q-89 -44 -93 -170z" />
    <glyph glyph-name="r" unicode="r" horiz-adv-x="354" 
d="M141 516l5 -86q13 21 29 40q44 53 118 53q11 0 63 -5v-91q-36 12 -65 12q-63 -2 -104 -60q-28 -41 -35 -127v-250h-97v204q0 210 -1 236q-1 24 -3 74h90z" />
    <glyph glyph-name="s" unicode="s" horiz-adv-x="375" 
d="M330 506l-7 -80q-71 25 -108 25q-54 0 -75 -32q-10 -16 -10 -31q0 -18 14 -34.5t26.5 -24.5t34.5 -19q5 -3 28.5 -14.5t35.5 -18.5q30 -18 44 -32q35 -38 35 -98q0 -44 -20 -77q-22 -37 -66 -57t-93 -20q-48 0 -144 31l7 86q80 -37 122 -37q45 0 68 21.5t23 47.5
q0 23 -18 45q-4 4 -46 28q-22 12 -64 36q-37 22 -53 39q-33 36 -33 93q0 38 17 69q21 37 64 56.5t92 19.5q40 0 126 -22z" />
    <glyph glyph-name="t" unicode="t" horiz-adv-x="375" 
d="M-1 516h117v119l94 31v-150h136v-72h-136v-284q4 -28 8 -40q19 -50 75 -50q19 0 58 13l-1 -80q-62 -11 -87 -11q-71 0 -110 42q-19 20 -27 45q-8 21 -10 76v289h-117v72z" />
    <glyph glyph-name="u" unicode="u" horiz-adv-x="562" 
d="M52 516h96v-333q3 -29 11 -47q26 -64 101 -64q61 0 101 50q30 36 41 116l4 279h95v-516h-86l-4 77l-7 -8q-6 -7 -14.5 -16t-15.5 -15q-61 -48 -136 -48q-85 3 -137 59q-28 30 -36.5 62.5t-12.5 88.5v315z" />
    <glyph glyph-name="v" unicode="v" horiz-adv-x="479" 
d="M98 516l143 -422l145 423h93l-185 -516h-111l-185 515h100z" />
    <glyph glyph-name="w" unicode="w" horiz-adv-x="833" 
d="M227 90l133 427h109q36 -116 56 -173q11 -33 25.5 -75t19.5 -57t13 -47t19 -82q14 64 30 122q2 8 54 172q5 17 19 65.5t21 74.5h97l-170 -517h-108q-31 100 -55 169q-40 120 -47 144q-12 42 -32 126q-27 -110 -53 -193q-18 -63 -81 -244h-107l-167 514h101
q10 -33 29.5 -99t29.5 -99q33 -102 41 -134q10 -34 23 -94z" />
    <glyph glyph-name="x" unicode="x" horiz-adv-x="500" 
d="M189 275l-170 240h113l120 -181l117 183h103l-167 -247l183 -269h-117l-128 202l-128 -201h-110z" />
    <glyph glyph-name="y" unicode="y" horiz-adv-x="479" 
d="M385 519l96 -1q-85 -235 -109 -298q-60 -165 -66 -181q-24 -68 -33 -90.5t-39 -79.5q-18 -27 -30 -39q-44 -44 -115 -44q-27 0 -62 8l6 75q36 -6 44 -6q40 0 69 29q23 22 48 92l-197 534l102 -1q19 -57 59 -173q7 -20 21 -56.5t19 -49.5q26 -67 42 -148q30 100 63 198
q22 66 82 231z" />
    <glyph glyph-name="z" unicode="z" horiz-adv-x="458" 
d="M17 83l301 362h-289v72h394v-80l-300 -363h310v-73h-416v82z" />
    <glyph glyph-name="braceleft" unicode="{" horiz-adv-x="354" 
d="M140 414v168q0 1 0.5 8.5t0.5 12.5t1 15.5t3 18t5 18.5t7.5 19.5t11 18.5t15 17.5t19.5 14t24 11.5q7 3 14 5t17.5 3t17 1.5t23.5 1t27 1.5l-1 -6q-2 -1 -12.5 -4t-15.5 -5q-48 -16 -64 -64q-7 -20 -8 -94v-98v-20q0 -49 -0.5 -71.5t-5.5 -47.5t-15 -43q-18 -30 -65 -46
q55 -20 72 -60q3 -6 5 -12t3.5 -13.5t3 -13t2 -16t1 -16t0.5 -19v-19.5v-23v-25v-110q1 -83 18 -113q9 -16 23 -26.5t25 -15t34 -11.5l-1 -6q-7 0 -20 1t-19 1q-97 5 -128 68q-5 9 -8 20.5t-5 19.5t-3 22t-1 20t-0.5 22.5t-0.5 20.5v129v14v16v13q0 91 -50 121q-12 6 -21 9
v6q26 6 41 21q8 8 13.5 19.5t8.5 21.5t5 27t2 25t0.5 26t0.5 21z" />
    <glyph glyph-name="bar" unicode="|" horiz-adv-x="229" 
d="M155 -250h-81v998h81v-998z" />
    <glyph glyph-name="braceright" unicode="}" horiz-adv-x="354" 
d="M215 83v-125q-1 -18 -1 -53q-5 -104 -71 -138q-7 -3 -12.5 -5.5t-13.5 -4t-12.5 -2.5t-15.5 -2t-16 -1t-21 -1t-23 -1v6q55 13 77 43q12 16 17 38q4 19 6 86v98v36t0.5 33.5t1 27t2 26.5t3.5 20.5t5.5 21.5t8.5 17q18 30 65 46q-35 13 -52 29q-23 24 -28.5 57.5
t-6.5 105.5v24v110q0 73 -12 101q-4 10 -9 18q-9 15 -23 24.5t-23.5 13t-31.5 10.5v6q22 -2 34 -2q71 -5 103 -31q7 -6 13.5 -13t11 -13.5t8 -16t6 -15.5t4 -18t2.5 -17t1.5 -18.5t1 -17t0.5 -18v-16.5v-129q0 -56 1 -67q4 -64 44 -93q10 -6 26 -12v-6q-24 -6 -39 -20
q-6 -6 -11 -14.5t-8.5 -15.5t-5.5 -19t-3.5 -19t-2 -20.5t-0.5 -18.5v-19v-16z" />
    <glyph glyph-name="asciitilde" unicode="~" horiz-adv-x="729" 
d="M367 247l-28 14l-7 3q-6 3 -14 6.5t-18 7t-21 5.5t-21 2t-18 -1.5t-16.5 -6.5t-13.5 -8t-13 -12t-11 -12t-12 -14t-10 -13l-40 72q59 84 133 84q39 -1 111 -34l33 -15q46 -21 70 -21q37 0 81 44l15 18l38 -72q-25 -29 -44 -43q-43 -36 -93 -36q-35 1 -101 32z" />
    <glyph glyph-name="exclamdown" unicode="&#xa1;" horiz-adv-x="229" 
d="M54 509h87l14 -507h-117zM152 700v-107h-110v107h110z" />
    <glyph glyph-name="sterling" unicode="&#xa3;" horiz-adv-x="479" 
d="M8 83h92v262h-81v55h81q-1 39 -1 71.5t8 68t25 65.5q20 36 49 60t59.5 34t51.5 13.5t40 3.5q45 -1 129 -22l-9 -86q-65 23 -105 23q-53 0 -90 -28q-16 -12 -32 -39q-13 -23 -19 -52t-6 -55.5v-55.5h161v-56h-160v-262h247v-82h-440v82z" />
    <glyph glyph-name="currency" unicode="&#xa4;" 
d="M548 183l77 -76l-62 -60l-76 76q-69 -50 -154 -50q-81 0 -155 51l-76 -76l-60 61l76 75q-51 74 -51 157q0 68 32 124q12 20 19 29l-75 76l60 60l75 -75q75 51 156 51q65 0 121 -29q6 -3 14 -8.5t13.5 -9.5t6.5 -4l75 75l61 -60l-76 -76q50 -68 50 -155q0 -60 -23 -109
q-8 -18 -28 -47zM519 340q0 66 -38 116q-57 72 -147 71q-36 0 -69 -12q-55 -21 -86.5 -68.5t-31.5 -107.5q0 -79 54.5 -133t133.5 -54q59 0 102 30q82 54 82 158z" />
    <glyph glyph-name="brokenbar" unicode="&#xa6;" horiz-adv-x="229" 
d="M74 190h81v-381h-81v381zM74 308v381h81v-381h-81z" />
    <glyph glyph-name="section" unicode="&#xa7;" horiz-adv-x="458" 
d="M402 683l-12 -89q-96 34 -142 34q-62 0 -94 -37q-16 -18 -16 -39q0 -10 5 -25q11 -27 64 -49q89 -36 159 -74q4 -3 11.5 -9t11.5 -9q43 -38 43 -98q0 -28 -9 -54q-9 -24 -24 -40.5t-42 -38.5q27 -22 32 -27q29 -32 29 -81q0 -47 -29 -91q-57 -87 -201 -87q-15 0 -30 1
t-25.5 2t-23.5 3.5t-19.5 4t-19 5t-16 5t-16 6t-13.5 4.5l10 90q94 -39 158 -39q60 1 93 25.5t33 58.5q0 22 -14 41q-7 9 -17 17t-25.5 15t-24.5 11t-28 11t-22 8q-58 26 -83 41q-15 7 -35 25q-22 22 -33 52q-8 24 -8 49q0 28 12 52.5t24 38.5t38 38l-10 8q-10 9 -17 16
q-36 35 -36 87q0 40 24 80q55 84 194 84q66 0 144 -26zM238 368l-81 36q-14 -15 -22 -24.5t-14.5 -25t-6.5 -32.5q0 -26 15 -44q16 -21 58 -40.5t123 -47.5q36 45 36 77q-3 43 -32 64q-6 5 -14.5 9.5t-14.5 7t-21.5 9t-25.5 11.5z" />
    <glyph glyph-name="dieresis" unicode="&#xa8;" horiz-adv-x="271" 
d="M-93 694h92v-94h-92v94zM101 694h90v-94h-90v94z" />
    <glyph glyph-name="copyright" unicode="&#xa9;" horiz-adv-x="833" 
d="M773 351q-3 -136 -88 -234q-50 -57 -120 -88.5t-148 -31.5q-158 0 -265 116q-91 100 -91 241q0 130 81 228q109 127 276 127q120 0 212 -69q22 -16 43 -38t45.5 -58t39.5 -86t15 -107zM740 352q0 112 -64 197q-15 20 -34.5 38.5t-51 40.5t-76.5 35.5t-96 13.5
q-108 0 -192 -62q-20 -15 -39.5 -34.5t-42.5 -52t-37 -78t-14 -97.5q0 -65 24 -123q37 -91 119.5 -146t181.5 -55q49 0 103 17q99 33 158.5 117t60.5 189zM613 502l-56 -53q-60 67 -133 67q-37 0 -68 -14q-43 -20 -67 -60t-24 -88q0 -34 15 -69q19 -42 58.5 -67t87.5 -25
q73 0 131 65l56 -49q-76 -91 -190 -91q-47 0 -90 16q-68 26 -107 85.5t-39 134.5q0 103 68 170.5t170 67.5q86 0 151 -53q20 -18 37 -37z" />
    <glyph glyph-name="guillemotleft" unicode="&#xab;" horiz-adv-x="479" 
d="M161 467h90l-132 -207l129 -205h-88l-144 207zM361 467h89l-126 -205l124 -207h-86l-138 206z" />
    <glyph glyph-name="logicalnot" unicode="&#xac;" 
d="M587 253h-587v79h667v-332h-80v253z" />
    <glyph glyph-name="registered" unicode="&#xae;" horiz-adv-x="833" 
d="M595 131l-92 1q-5 11 -9 22.5t-6.5 24.5t-4 22t-3.5 25.5t-3 23.5q-5 32 -12.5 46.5t-22.5 23.5q-20 12 -68 13h-28v-202h-80v449h146h9q35 0 54.5 -1.5t46.5 -12t43 -31.5q24 -30 24 -70q0 -67 -61 -96q-17 -7 -32 -11q20 -9 27 -14q8 -6 14.5 -15t10 -15.5t7 -19.5
t4.5 -18.5t3 -20.5t3 -18q12 -73 30 -106zM346 396h67q18 0 27 1q47 4 62 34q7 11 7 28q0 35 -28 51q-19 9 -60 9q-3 0 -11 -0.5t-12 -0.5h-52v-122zM773 351q0 -129 -85 -229q-43 -51 -102 -81.5t-96.5 -37t-72.5 -6.5q-122 0 -218 73q-138 108 -138 284q0 130 81 228
q109 127 276 127q85 0 160 -37t126 -106q71 -95 69 -215zM741 352q0 109 -63 195q-15 20 -34.5 39t-51.5 41.5t-77.5 36t-96.5 13.5q-108 0 -192 -62q-20 -15 -39.5 -34.5t-42.5 -52t-37 -78t-14 -97.5q0 -65 24 -123q37 -91 119.5 -146t181.5 -55q54 0 109 19
q97 34 155 117.5t59 186.5z" />
    <glyph glyph-name="degree" unicode="&#xb0;" horiz-adv-x="354" 
d="M177 755q67 0 114 -47t47 -114q0 -37 -15 -69q-20 -42 -60 -67.5t-86 -25.5q-67 1 -114 48t-47 114t47 114t114 47zM177 675q-33 0 -56 -23.5t-23 -55.5q0 -33 23.5 -56t55.5 -23q33 0 56 23t23 56q0 32 -23 55.5t-56 23.5z" />
    <glyph glyph-name="plusminus" unicode="&#xb1;" 
d="M374 135h-79v242h-254v79h254v242h79v-242h251v-79h-251v-242zM625 0h-584v79h584v-79z" />
    <glyph glyph-name="acute" unicode="&#xb4;" horiz-adv-x="271" 
d="M88 711h124l-137 -134h-71z" />
    <glyph glyph-name="mu" unicode="&#xb5;" horiz-adv-x="562" 
d="M504 140l28 1q14 -34 14 -69q0 -9 -1.5 -19t-7.5 -26.5t-21 -27t-38 -10.5q-41 0 -68 39q-12 16 -21 44q-57 -87 -146 -87q-60 0 -102 48q-6 6 -14 18q-7 -102 30 -178l27 -45q19 -32 19 -48q0 -18 -12 -30t-31 -12q-11 0 -23 6q-20 10 -33 39q-26 55 -26 172
q0 100 11 170q-1 7 -3 20t-3.5 23.5t-2.5 19.5q-11 84 -11 177q0 46 6 64q18 36 44 35q20 0 32 -19q12 -17 12 -53q0 -25 -6 -77q-3 -28 -11 -95q-10 -79 -13 -95q7 -18 19 -39q32 -45 81 -45q29 0 53 18q10 7 19 16.5t15 20.5t11 21t8.5 21t5.5 17.5t4 14.5l2 8
q4 20 6 44.5t2.5 48t0.5 41.5v34l-1 16q0 66 12 84q13 19 36 18q15 0 25 -7q26 -20 26 -91q0 -121 -29 -209q-7 -23 -20 -48q19 -51 54 -51q9 0 19 6q24 13 24 54q0 6 -2 22z" />
    <glyph glyph-name="paragraph" unicode="&#xb6;" 
d="M539 706v-54h-34v-819h-58v819h-144v-819h-58v486q-38 7 -58 17q-49 22 -74 68t-25 103q0 67 35.5 118t98.5 71q36 10 87 10h230z" />
    <glyph glyph-name="periodcentered" unicode="&#xb7;" horiz-adv-x="187" 
d="M91 224q-28 1 -46 20t-18 48q0 19 7 31q6 12 21.5 24.5t38.5 12.5q12 0 24 -5q43 -18 43 -63q0 -12 -5 -25q-18 -45 -65 -43z" />
    <glyph glyph-name="cedilla" unicode="&#xb8;" horiz-adv-x="271" 
d="M29 -99l-13 18l106 125l40 -5l-86 -101q12 3 33 3q33 0 59 -19.5t26 -52.5q0 -41 -34.5 -64t-78.5 -23q-32 0 -107 25l20 33q1 0 9.5 -3.5t17 -6t20.5 -5t22 -2.5q25 0 39.5 12.5t14.5 26.5t-14 28.5t-39 14.5q-11 0 -35 -4z" />
    <glyph glyph-name="guillemotright" unicode="&#xbb;" horiz-adv-x="479" 
d="M116 467l143 -208l-142 -205h-89l132 204l-134 209h90zM323 468l136 -208l-136 -204h-90l128 204l-131 208h93z" />
    <glyph glyph-name="questiondown" unicode="&#xbf;" horiz-adv-x="479" 
d="M208 508l88 -1q-1 -31 -2 -46.5t-7 -36t-18 -41.5q-14 -23 -43.5 -57t-39.5 -47q-37 -45 -37 -98q0 -25 10 -44q29 -58 110 -58q57 0 150 37l7 -95q-98 -32 -162 -32q-127 0 -188 79q-33 43 -33 101q0 33 9 61q7 24 22.5 48.5t26 36.5t35.5 40q32 36 45 59q21 33 27 94z
M197 701h107v-109h-107v109z" />
    <glyph glyph-name="Agrave" unicode="&#xc0;" horiz-adv-x="708" 
d="M293 705h107l306 -704h-116l-74 179h-341l-73 -177h-107zM208 260l277 1q-44 108 -67 163q-24 57 -41 101q-16 42 -33 94q-28 -85 -34 -102q-5 -13 -54 -133q-13 -32 -48 -124zM316 900l82 -135h-76l-135 135h129z" />
    <glyph glyph-name="Aacute" unicode="&#xc1;" horiz-adv-x="708" 
d="M293 705h107l306 -704h-116l-74 179h-341l-73 -177h-107zM208 260l277 1q-44 108 -67 163q-24 57 -41 101q-16 42 -33 94q-28 -85 -34 -102q-5 -13 -54 -133q-13 -32 -48 -124zM387 900h124l-136 -134h-71z" />
    <glyph glyph-name="Acircumflex" unicode="&#xc2;" horiz-adv-x="708" 
d="M293 705h107l306 -704h-116l-74 179h-341l-73 -177h-107zM208 260l277 1q-44 108 -67 163q-24 57 -41 101q-16 42 -33 94q-28 -85 -34 -102q-5 -13 -54 -133q-13 -32 -48 -124zM305 904h97l101 -133h-86l-65 87l-75 -86h-84z" />
    <glyph glyph-name="Atilde" unicode="&#xc3;" horiz-adv-x="708" 
d="M293 705h107l306 -704h-116l-74 179h-341l-73 -177h-107zM208 260l277 1q-44 108 -67 163q-24 57 -41 101q-16 42 -33 94q-28 -85 -34 -102q-5 -13 -54 -133q-13 -32 -48 -124zM494 898h42q0 -19 -12 -50q-10 -23 -34 -43.5t-63 -20.5q-32 0 -68 17q-5 2 -18 8t-19 9
t-17 5.5t-21 2.5q-15 0 -26 -5q-18 -6 -39 -41h-44q6 36 13 53q29 62 89 61q34 0 99 -24q42 -17 57 -17q14 0 22 4q18 6 39 41z" />
    <glyph glyph-name="Adieresis" unicode="&#xc4;" horiz-adv-x="708" 
d="M293 705h107l306 -704h-116l-74 179h-341l-73 -177h-107zM208 260l277 1q-44 108 -67 163q-24 57 -41 101q-16 42 -33 94q-28 -85 -34 -102q-5 -13 -54 -133q-13 -32 -48 -124zM191 880h93v-99h-93v99zM412 881h94v-99h-94v99z" />
    <glyph glyph-name="Aring" unicode="&#xc5;" horiz-adv-x="708" 
d="M293 705h107l306 -704h-116l-74 179h-341l-73 -177h-107zM208 260l277 1q-11 25 -31.5 76t-31.5 76q-5 13 -15 37t-18 43.5t-15 36.5q-20 60 -30 89q-15 -49 -33 -99q-5 -12 -50 -121q-36 -92 -53 -139zM245 845q6 28 20 47q30 43 85 43q26 0 51 -14q49 -27 49 -88
q0 -24 -9 -43q-27 -59 -93 -59q-47 1 -78 34t-25 80zM292 852q-2 -7 -2 -17q0 -24 16 -42.5t39 -18.5q25 0 44 17.5t19 41.5t-16.5 40t-40.5 16q-19 0 -36 -10.5t-23 -26.5z" />
    <glyph glyph-name="AE" unicode="&#xc6;" horiz-adv-x="917" 
d="M423 699h444v-84h-282l13 -210h250v-84h-244l15 -233h258v-89h-348l-13 181h-298l-109 -180h-112zM489 634l-225 -373h248z" />
    <glyph glyph-name="Ccedilla" unicode="&#xc7;" horiz-adv-x="604" 
d="M424 -17l-53 -66q22 2 33 2q35 0 59.5 -19.5t24.5 -54.5q0 -43 -41 -69q-31 -20 -77 -20q-38 0 -104 24l20 38q34 -17 71 -17q23 0 43 15q11 12 11 26q0 12 -12 27q-18 12 -39 12q-8 0 -38 -5l-15 18l74 92q-113 8 -196 62q-21 15 -33 26q-44 39 -70 86q-22 37 -33 80
q-13 48 -13 113q0 108 44.5 180.5t98.5 110.5q93 66 229 66q79 0 143 -21q9 -3 47 -20l-14 -97q-16 11 -29 19q-61 32 -139 32q-68 0 -125 -26q-48 -22 -80.5 -57.5t-45 -75.5t-16.5 -66t-4 -51q0 -89 41 -150q10 -14 22 -28q26 -30 58 -50q71 -45 162 -45q56 1 138 24
l-1 -98q-31 -8 -45 -10q-28 -7 -79 -7h-17z" />
    <glyph glyph-name="Egrave" unicode="&#xc8;" horiz-adv-x="500" 
d="M64 704h390v-86h-289v-211h268v-86h-269v-233h297v-88h-397v704zM212 900l82 -135h-77l-134 135h129z" />
    <glyph glyph-name="Eacute" unicode="&#xc9;" horiz-adv-x="500" 
d="M64 704h390v-86h-289v-211h268v-86h-269v-233h297v-88h-397v704zM283 900h124l-136 -134h-71z" />
    <glyph glyph-name="Ecircumflex" unicode="&#xca;" horiz-adv-x="500" 
d="M64 704h390v-86h-289v-211h268v-86h-269v-233h297v-88h-397v704zM201 904h97l101 -133h-86l-66 87l-74 -86h-84z" />
    <glyph glyph-name="Edieresis" unicode="&#xcb;" horiz-adv-x="500" 
d="M64 704h390v-86h-289v-211h268v-86h-269v-233h297v-88h-397v704zM88 886h93v-99h-93v99zM310 886h95v-98h-95v98z" />
    <glyph glyph-name="Igrave" unicode="&#xcc;" horiz-adv-x="229" 
d="M65 701h98v-700h-98v700zM76 900l83 -135h-77l-134 135h128z" />
    <glyph glyph-name="Iacute" unicode="&#xcd;" horiz-adv-x="229" 
d="M65 701h98v-700h-98v700zM148 900h123l-135 -134h-71z" />
    <glyph glyph-name="Icircumflex" unicode="&#xce;" horiz-adv-x="229" 
d="M65 701h98v-700h-98v700zM65 904h97l101 -133h-86l-65 87l-74 -86h-85z" />
    <glyph glyph-name="Idieresis" unicode="&#xcf;" horiz-adv-x="229" 
d="M65 701h98v-700h-98v700zM-47 886h93v-99h-93v99zM175 886h94v-98h-94v98z" />
    <glyph glyph-name="Ntilde" unicode="&#xd1;" horiz-adv-x="688" 
d="M65 702h132q106 -185 141 -244q94 -157 120 -205q27 -52 73 -158q-7 175 -8 314q0 98 2 292h92v-701h-124q-76 135 -133 231q-28 48 -86 142q-66 110 -122 246q7 -187 8 -336q0 -47 -0.5 -141t-0.5 -141h-94v701zM483 898h43l-2 -10q-2 -9 -4.5 -20.5t-6.5 -19.5
q-10 -23 -34 -43.5t-63 -20.5q-30 0 -68 17q-5 2 -17.5 8t-19 9t-17 5.5t-20.5 2.5q-15 0 -26 -5q-9 -3 -17 -10.5t-11.5 -12.5t-11.5 -18h-44q6 31 14 53q9 22 31 42t58 19q32 0 99 -24q42 -17 57 -17q17 0 21 4q20 7 39 41z" />
    <glyph glyph-name="Ograve" unicode="&#xd2;" horiz-adv-x="750" 
d="M32 364q5 150 86 244q33 36 77 62q80 46 173 46q75 -1 145 -29.5t115 -81.5q80 -95 80 -249q0 -111 -39.5 -186t-90.5 -114q-86 -66 -211 -66q-85 0 -154 32q-95 44 -140 136t-41 206zM136 350q0 -57 14 -105q23 -79 80 -128.5t137 -49.5q97 0 160 67q79 87 79 219
q0 142 -75 219q-28 28 -67 45q-45 21 -96 21q-86 0 -148 -63q-84 -84 -84 -225zM337 900l82 -135h-77l-134 135h129z" />
    <glyph glyph-name="Oacute" unicode="&#xd3;" horiz-adv-x="750" 
d="M32 364q5 150 86 244q33 36 77 62q80 46 173 46q75 -1 145 -29.5t115 -81.5q80 -95 80 -249q0 -111 -39.5 -186t-90.5 -114q-86 -66 -211 -66q-85 0 -154 32q-95 44 -140 136t-41 206zM136 350q0 -57 14 -105q23 -79 80 -128.5t137 -49.5q97 0 160 67q79 87 79 219
q0 142 -75 219q-28 28 -67 45q-45 21 -96 21q-86 0 -148 -63q-84 -84 -84 -225zM408 900h124l-136 -134h-71z" />
    <glyph glyph-name="Ocircumflex" unicode="&#xd4;" horiz-adv-x="750" 
d="M32 364q5 150 86 244q33 36 77 62q80 46 173 46q75 -1 145 -29.5t115 -81.5q80 -95 80 -249q0 -111 -39.5 -186t-90.5 -114q-86 -66 -211 -66q-85 0 -154 32q-95 44 -140 136t-41 206zM136 350q0 -57 14 -105q23 -79 80 -128.5t137 -49.5q97 0 160 67q79 87 79 219
q0 142 -75 219q-28 28 -67 45q-45 21 -96 21q-86 0 -148 -63q-84 -84 -84 -225zM326 904h97l101 -133h-86l-66 87l-74 -86h-84z" />
    <glyph glyph-name="Otilde" unicode="&#xd5;" horiz-adv-x="750" 
d="M32 364q5 150 86 244q33 36 77 62q80 46 173 46q75 -1 145 -29.5t115 -81.5q80 -95 80 -249q0 -111 -39.5 -186t-90.5 -114q-86 -66 -211 -66q-85 0 -154 32q-95 44 -140 136t-41 206zM136 350q0 -57 14 -105q23 -79 80 -128.5t137 -49.5q97 0 160 67q79 87 79 219
q0 142 -75 219q-28 28 -67 45q-45 21 -96 21q-86 0 -148 -63q-84 -84 -84 -225zM515 898h42q0 -1 -1.5 -10t-4.5 -20.5t-6 -19.5q-10 -23 -34 -43.5t-63 -20.5q-31 0 -69 17q-5 2 -17.5 8t-19 9t-17 5.5t-20.5 2.5q-15 0 -26 -5q-20 -7 -39 -41h-45q8 37 14 53q29 62 89 61
q32 0 99 -24q42 -17 57 -17q14 0 22 4q18 6 39 41z" />
    <glyph glyph-name="Odieresis" unicode="&#xd6;" horiz-adv-x="750" 
d="M32 364q5 150 86 244q33 36 77 62q80 46 173 46q75 -1 145 -29.5t115 -81.5q80 -95 80 -249q0 -111 -39.5 -186t-90.5 -114q-86 -66 -211 -66q-85 0 -154 32q-95 44 -140 136t-41 206zM136 350q0 -57 14 -105q23 -79 80 -128.5t137 -49.5q97 0 160 67q79 87 79 219
q0 142 -75 219q-28 28 -67 45q-45 21 -96 21q-86 0 -148 -63q-84 -84 -84 -225zM310 882v-99h-92v99h92zM436 883h94v-99h-94v99z" />
    <glyph glyph-name="multiply" unicode="&#xd7;" 
d="M534 36l-200 200l-202 -200l-55 56l201 200l-201 201l55 56l202 -201l200 201l56 -56l-200 -201l200 -200z" />
    <glyph glyph-name="Oslash" unicode="&#xd8;" horiz-adv-x="750" 
d="M595 640l56 66l36 -32l-59 -66q18 -25 28 -42q56 -86 56 -216q0 -84 -24 -148q-38 -103 -124 -158t-196 -55q-89 0 -159 35q-22 12 -58 37l-57 -66l-35 31l59 68q-18 26 -27 40q-57 89 -57 211q0 83 25 150q37 103 121 159.5t195 56.5q55 0 103 -14t64.5 -24t52.5 -33z
M179 165l355 406q-1 1 -9.5 8t-12 9t-13 9t-16 10t-17 8.5t-20.5 8.5t-22 6t-25.5 4.5t-27.5 1.5q-93 0 -157 -66q-82 -82 -82 -221q0 -43 9.5 -83.5t16.5 -55.5zM569 542l-357 -412q13 -11 26 -20q63 -46 142 -46q61 0 109 29q47 28 87 96t40 169q0 17 -1.5 34t-3 29.5
t-6 27.5t-6.5 23t-7.5 21.5t-7.5 17.5t-8 17t-7 14z" />
    <glyph glyph-name="Ugrave" unicode="&#xd9;" 
d="M59 704h101v-418q3 -47 6.5 -70.5t18.5 -55.5t42 -53q42 -34 104 -34q90 0 136 67q18 26 26.5 61t10 58.5t1.5 66.5v378h98v-435q0 -4 -0.5 -12t-1 -14.5t-1.5 -12.5q-7 -93 -58 -154q-73 -86 -203 -86q-35 0 -55 4q-92 10 -152 72q-36 37 -53 85q-16 49 -20 156v397z
M295 900l83 -135h-77l-135 135h129z" />
    <glyph glyph-name="Uacute" unicode="&#xda;" 
d="M59 704h101v-418q3 -47 6.5 -70.5t18.5 -55.5t42 -53q42 -34 104 -34q90 0 136 67q18 26 26.5 61t10 58.5t1.5 66.5v378h98v-435q0 -4 -0.5 -12t-1 -14.5t-1.5 -12.5q-7 -93 -58 -154q-73 -86 -203 -86q-35 0 -55 4q-92 10 -152 72q-36 37 -53 85q-16 49 -20 156v397z
M367 900h123l-136 -134h-71z" />
    <glyph glyph-name="Ucircumflex" unicode="&#xdb;" 
d="M59 704h101v-418q3 -47 6.5 -70.5t18.5 -55.5t42 -53q42 -34 104 -34q90 0 136 67q18 26 26.5 61t10 58.5t1.5 66.5v378h98v-435q0 -4 -0.5 -12t-1 -14.5t-1.5 -12.5q-7 -93 -58 -154q-73 -86 -203 -86q-35 0 -55 4q-92 10 -152 72q-36 37 -53 85q-16 49 -20 156v397z
M284 904h97l101 -133h-86l-65 87l-74 -86h-85z" />
    <glyph glyph-name="Udieresis" unicode="&#xdc;" 
d="M59 704h101v-418q0 -15 2 -45q9 -100 76 -142q46 -26 97 -26q94 0 138 78q14 25 21.5 58t8.5 54.5t1 62.5v378h99v-435q0 -4 -0.5 -12t-1 -14.5t-1.5 -12.5q-7 -93 -58 -154q-73 -86 -203 -86q-35 0 -55 4q-92 10 -152 72q-36 37 -53 85q-16 49 -20 156v397zM179 878h92
v-98h-92v98zM399 880h94v-99h-94v99z" />
    <glyph glyph-name="germandbls" unicode="&#xdf;" horiz-adv-x="583" 
d="M233 4v80q49 -11 76 -11q28 0 49 9q84 31 84 138q0 51 -28 86q-18 23 -45.5 36.5t-49 16.5t-59.5 6l1 74q46 3 62 8q39 12 62 44t23 74q0 30 -11 55q-12 29 -35 46t-40 21t-34 4q-35 0 -66 -18q-17 -10 -29 -24t-19 -26t-12 -34t-7 -34t-5 -39v-514h-96q2 170 1 255
q0 18 -1 50.5t-1.5 59.5t-0.5 51q0 62 7 150q16 66 29 88q22 43 72.5 76t130.5 33q47 0 89 -14q58 -20 93 -68.5t35 -110.5q0 -79 -50 -127q-19 -17 -58 -40q51 -17 77 -37q69 -57 69 -156q0 -40 -15 -80q-18 -46 -56 -81t-84 -48q-24 -8 -63 -8q-33 0 -95 9z" />
    <glyph glyph-name="agrave" unicode="&#xe0;" horiz-adv-x="500" 
d="M75 402v81q3 1 11.5 6t12 6.5t12.5 5.5t14 6t14 5.5t16.5 5t18 3.5t20 3t22 2t25.5 1q86 0 139 -39q25 -19 39 -42q14 -24 24 -85v-361h-82v82q-38 -43 -65 -60q-47 -29 -113 -29q-112 0 -154 80q-19 35 -19 77q0 80 72 124q67 43 181 43q30 0 90 -4q0 57 -19 86
q-13 20 -41.5 36t-70.5 16q-57 0 -147 -49zM355 247q-36 3 -72 3q-71 0 -118 -23q-31 -15 -43 -36q-12 -19 -12 -43q0 -25 12 -43q25 -41 91 -41q20 0 51 9q67 28 85 98q6 25 6 76zM212 710l83 -133h-75l-136 133h128z" />
    <glyph glyph-name="aacute" unicode="&#xe1;" horiz-adv-x="500" 
d="M75 402v81q3 1 11.5 6t12 6.5t12.5 5.5t14 6t14 5.5t16.5 5t18 3.5t20 3t22 2t25.5 1q86 0 139 -39q25 -19 39 -42q14 -24 24 -85v-361h-82v82q-38 -43 -65 -60q-47 -29 -113 -29q-112 0 -154 80q-19 35 -19 77q0 80 72 124q67 43 181 43q30 0 90 -4q0 57 -19 86
q-13 20 -41.5 36t-70.5 16q-57 0 -147 -49zM355 247q-36 3 -72 3q-71 0 -118 -23q-31 -15 -43 -36q-12 -19 -12 -43q0 -25 12 -43q25 -41 91 -41q20 0 51 9q67 28 85 98q6 25 6 76zM286 711h124l-137 -134h-71z" />
    <glyph glyph-name="acircumflex" unicode="&#xe2;" horiz-adv-x="500" 
d="M75 402v81q3 1 11.5 6t12 6.5t12.5 5.5t14 6t14 5.5t16.5 5t18 3.5t20 3t22 2t25.5 1q86 0 139 -39q25 -19 39 -42q14 -24 24 -85v-361h-82v82q-38 -43 -65 -60q-47 -29 -113 -29q-112 0 -154 80q-19 35 -19 77q0 80 72 124q67 43 181 43q30 0 90 -4q0 57 -19 86
q-13 20 -41.5 36t-70.5 16q-57 0 -147 -49zM355 247q-36 3 -72 3q-71 0 -118 -23q-31 -15 -43 -36q-12 -19 -12 -43q0 -25 12 -43q25 -41 91 -41q20 0 51 9q67 28 85 98q6 25 6 76zM202 713h96l99 -131h-85l-64 86l-74 -87h-83z" />
    <glyph glyph-name="atilde" unicode="&#xe3;" horiz-adv-x="500" 
d="M75 402v81q3 1 11.5 6t12 6.5t12.5 5.5t14 6t14 5.5t16.5 5t18 3.5t20 3t22 2t25.5 1q86 0 139 -39q25 -19 39 -42q14 -24 24 -85v-361h-82v82q-38 -43 -65 -60q-47 -29 -113 -29q-112 0 -154 80q-19 35 -19 77q0 80 72 124q67 43 181 43q30 0 90 -4q0 57 -19 86
q-13 20 -41.5 36t-70.5 16q-57 0 -147 -49zM355 247q-36 3 -72 3q-71 0 -118 -23q-31 -15 -43 -36q-12 -19 -12 -43q0 -25 12 -43q25 -41 91 -41q20 0 51 9q67 28 85 98q6 25 6 76zM381 705l44 -1q-4 -20 -17 -46q-30 -60 -89 -60q-27 0 -60 14q-4 2 -19 9t-21.5 9.5
t-18.5 5.5t-22 3q-23 0 -35.5 -10t-27.5 -33l-42 1q9 30 16 45q10 21 33 40.5t59 19.5q29 0 67 -16q52 -24 73 -24q22 0 34 9.5t26 33.5z" />
    <glyph glyph-name="adieresis" unicode="&#xe4;" horiz-adv-x="500" 
d="M78 401v83q38 16 58 23.5t51 14t61 6.5q27 0 57 -6q95 -28 122 -88q12 -28 17 -92v-341h-81v82q-23 -27 -32 -37q-53 -53 -143 -53q-98 0 -144 63q-31 43 -31 92q0 26 9 51q22 61 102 93q76 30 232 22q-1 48 -10 68q-10 25 -38.5 46t-76.5 21q-57 0 -153 -48zM110 691h93
v-92h-93v92zM358 249q-124 6 -179 -18q-34 -14 -50 -36q-15 -19 -15 -48q0 -22 11 -41q27 -44 93 -44q73 2 114 60q13 19 19 41.5t7 38.5t0 47zM305 691h87v-94h-87v94z" />
    <glyph glyph-name="aring" unicode="&#xe5;" horiz-adv-x="500" 
d="M76 400v84q102 44 168 44q82 0 140 -46q32 -24 45 -56q12 -30 15 -100v-325h-82v85q-19 -23 -27 -31.5t-31 -27t-53 -26t-69 -7.5q-101 0 -146 71q-24 39 -24 85q0 87 85 131q68 35 171 35q1 0 91 -3q-4 46 -14 69q-14 33 -47 51t-71 18q-27 0 -56 -9t-45.5 -16.5
t-49.5 -25.5zM357 246q-48 4 -72 4q-65 0 -111 -20q-32 -14 -48 -35q-15 -21 -15 -47q0 -41 30 -62.5t73 -21.5q26 0 47 8q33 11 58 37.5t33 60.5q6 25 5 76zM150 671q8 33 39.5 55.5t67.5 22.5q40 0 69 -30t29 -72t-34 -72.5t-77 -30.5q-39 0 -68 31t-29 73q0 12 3 23z
M193 665q-3 -8 -3 -17q0 -26 18 -43.5t43 -17.5q24 0 41.5 16.5t17.5 40.5q0 25 -16.5 43.5t-40.5 18.5q-20 0 -37 -11.5t-23 -29.5z" />
    <glyph glyph-name="ae" unicode="&#xe6;" horiz-adv-x="854" 
d="M75 397l-3 87q38 16 57.5 23t50 13.5t62.5 6.5q84 0 134 -39q8 -6 47 -45q17 26 30 37q50 49 141 49q60 0 112 -27q37 -19 60.5 -47.5t34.5 -67t14.5 -69t5.5 -78.5h-363q9 -53 19 -73q21 -44 64 -69t94 -25q52 0 136 43l-1 -93q-49 -18 -76 -23.5t-75 -5.5
q-109 0 -166 48q-21 19 -50 60q-33 -49 -49 -63q-53 -46 -151 -46q-112 0 -163 76q-25 37 -25 80q0 92 95 137q41 19 94.5 24.5t161.5 5.5q-7 66 -33 92q-40 40 -107 40q-28 0 -56 -8t-45.5 -16.5t-49.5 -26.5zM372 244q-1 0 -13 0.5t-27.5 1t-34 0.5t-38.5 -1t-36 -4
q-106 -18 -106 -94q0 -38 30.5 -60.5t70.5 -22.5q45 1 82.5 29t55.5 72q9 27 16 79zM458 311l263 1q-4 24 -7.5 37.5t-10 31t-17.5 30.5t-27 23q-29 20 -65 20q-51 0 -91 -41q-29 -31 -45 -102z" />
    <glyph glyph-name="ccedilla" unicode="&#xe7;" horiz-adv-x="437" 
d="M299 -8l-64 -81q20 2 32 2q36 0 60.5 -19.5t24.5 -53.5q0 -44 -41 -70q-31 -20 -77 -20q-40 0 -104 24l20 38q42 -17 71 -17q23 0 43 15q10 13 10 26t-11 27q-18 12 -39 12q-26 0 -38 -5l-15 18l84 106q-40 4 -67 14q-79 27 -120 96t-41 156q0 66 23 121q31 70 98 109
t145 39q39 0 106 -20l-5 -84q-44 22 -83 22q-48 0 -83 -15q-49 -21 -75.5 -66.5t-26.5 -101.5q0 -26 6 -52q24 -99 103 -127q31 -11 66 -11q51 1 108 31l7 -86q-71 -26 -117 -27z" />
    <glyph glyph-name="egrave" unicode="&#xe8;" horiz-adv-x="521" 
d="M493 233h-373q16 -63 27 -84q22 -38 63 -58.5t88 -20.5q59 0 153 46v-90q-107 -35 -167 -35q-100 0 -166 56q-44 36 -69 95.5t-25 121.5q0 107 67 183q33 39 79 59q42 19 99 19q32 0 65 -8q72 -20 111 -79q26 -37 36 -81q9 -42 12 -124zM120 306h276q-6 34 -10.5 52
t-18.5 40t-37 36q-32 19 -66 19q-56 0 -98 -45q-26 -30 -46 -102zM222 710l83 -133h-75l-136 133h128z" />
    <glyph glyph-name="eacute" unicode="&#xe9;" horiz-adv-x="521" 
d="M493 233h-373q16 -63 27 -84q22 -38 63 -58.5t88 -20.5q59 0 153 46v-90q-107 -35 -167 -35q-100 0 -166 56q-44 36 -69 95.5t-25 121.5q0 107 67 183q33 39 79 59q42 19 99 19q32 0 65 -8q72 -20 111 -79q26 -37 36 -81q9 -42 12 -124zM120 306h276q-6 34 -10.5 52
t-18.5 40t-37 36q-32 19 -66 19q-56 0 -98 -45q-26 -30 -46 -102zM296 711h124l-136 -134h-71z" />
    <glyph glyph-name="ecircumflex" unicode="&#xea;" horiz-adv-x="521" 
d="M493 233h-373q16 -63 27 -84q22 -38 63 -58.5t88 -20.5q59 0 153 46v-90q-107 -35 -167 -35q-100 0 -166 56q-44 36 -69 95.5t-25 121.5q0 107 67 183q33 39 79 59q42 19 99 19q32 0 65 -8q72 -20 111 -79q26 -37 36 -81q9 -42 12 -124zM120 306h276q-6 34 -10.5 52
t-18.5 40t-37 36q-32 19 -66 19q-56 0 -98 -45q-26 -30 -46 -102zM223 713h96l99 -131h-85l-64 86l-74 -87h-83z" />
    <glyph glyph-name="edieresis" unicode="&#xeb;" horiz-adv-x="521" 
d="M493 233h-373q16 -63 27 -84q22 -38 63 -58.5t88 -20.5q59 0 153 46v-90q-107 -35 -167 -35q-100 0 -166 56q-44 36 -69 95.5t-25 121.5q0 107 67 183q33 39 79 59q42 19 99 19q32 0 65 -8q72 -20 111 -79q26 -37 36 -81q9 -42 12 -124zM120 306h276q-6 34 -10.5 52
t-18.5 40t-37 36q-32 19 -66 19q-56 0 -98 -45q-26 -30 -46 -102zM120 694h93v-94h-93v94zM315 694h89v-94h-89v94z" />
    <glyph glyph-name="igrave" unicode="&#xec;" horiz-adv-x="208" 
d="M55 518h95v-517h-95v517zM66 710l83 -133h-75l-136 133h128z" />
    <glyph glyph-name="iacute" unicode="&#xed;" horiz-adv-x="208" 
d="M55 518h95v-517h-95v517zM140 711h124l-137 -134h-70z" />
    <glyph glyph-name="icircumflex" unicode="&#xee;" horiz-adv-x="208" 
d="M55 518h95v-517h-95v517zM57 713h95l99 -131h-85l-64 86l-74 -87h-82z" />
    <glyph glyph-name="idieresis" unicode="&#xef;" horiz-adv-x="208" 
d="M55 518h95v-517h-95v517zM-41 694h93v-94h-93v94zM153 694h90v-94h-90v94z" />
    <glyph glyph-name="ntilde" unicode="&#xf1;" horiz-adv-x="562" 
d="M144 518v-74q1 1 7.5 8.5t14.5 15.5t16 15q57 45 138 45q95 0 150 -81q15 -24 23 -54.5t9 -51t1 -59.5v-281h-94l-3 333q0 1 -1 8t-2 11t-3.5 12.5t-5 14.5t-7 14.5t-9.5 14.5t-12.5 12.5t-16.5 11.5q-25 14 -55 14t-56 -14t-37.5 -26t-19.5 -25q-29 -43 -31 -135v-245
h-96v516h90zM412 705l45 -1q0 -1 -3 -9.5t-7 -18.5t-8 -18q-9 -21 -31.5 -40.5t-57.5 -19.5q-25 0 -60 14q-4 2 -19 9t-21.5 9.5t-18.5 5.5t-22 3q-23 0 -35.5 -10t-27.5 -33l-42 1q9 30 16 45q10 22 33 41t60 19q29 0 66 -16q52 -24 73 -24q23 0 35 10t25 33z" />
    <glyph glyph-name="ograve" unicode="&#xf2;" horiz-adv-x="583" 
d="M25 258q0 23 4 49.5t22.5 69.5t48.5 73q74 76 190 76q52 0 100 -18q50 -19 85 -53t49.5 -73t20 -67.5t5.5 -54.5q0 -63 -23 -115q-20 -49 -54.5 -82.5t-72.5 -48t-66 -19.5t-53 -5q-113 0 -183 69q-73 72 -73 199zM126 264q-4 -121 79 -173q36 -23 80 -23q41 0 77 21
q88 50 88 177q0 113 -81 162q-39 23 -78 23q-23 0 -51 -10q-42 -16 -76.5 -58.5t-37.5 -118.5zM253 710l84 -133h-75l-137 133h128z" />
    <glyph glyph-name="oacute" unicode="&#xf3;" horiz-adv-x="583" 
d="M25 258q0 23 4 49.5t22.5 69.5t48.5 73q74 76 190 76q52 0 100 -18q50 -19 85 -53t49.5 -73t20 -67.5t5.5 -54.5q0 -63 -23 -115q-20 -49 -54.5 -82.5t-72.5 -48t-66 -19.5t-53 -5q-113 0 -183 69q-73 72 -73 199zM126 264q-4 -121 79 -173q36 -23 80 -23q41 0 77 21
q88 50 88 177q0 113 -81 162q-39 23 -78 23q-23 0 -51 -10q-42 -16 -76.5 -58.5t-37.5 -118.5zM328 711h123l-136 -134h-71z" />
    <glyph glyph-name="ocircumflex" unicode="&#xf4;" horiz-adv-x="583" 
d="M25 258q0 23 4 49.5t22.5 69.5t48.5 73q74 76 190 76q52 0 100 -18q50 -19 85 -53t49.5 -73t20 -67.5t5.5 -54.5q0 -63 -23 -115q-20 -49 -54.5 -82.5t-72.5 -48t-66 -19.5t-53 -5q-113 0 -183 69q-73 72 -73 199zM126 264q-4 -121 79 -173q36 -23 80 -23q41 0 77 21
q88 50 88 177q0 113 -81 162q-39 23 -78 23q-23 0 -51 -10q-42 -16 -76.5 -58.5t-37.5 -118.5zM244 713h95l100 -131h-86l-63 86l-74 -87h-83z" />
    <glyph glyph-name="otilde" unicode="&#xf5;" horiz-adv-x="583" 
d="M25 258q0 23 4 49.5t22.5 69.5t48.5 73q74 76 190 76q52 0 100 -18q50 -19 85 -53t49.5 -73t20 -67.5t5.5 -54.5q0 -63 -23 -115q-20 -49 -54.5 -82.5t-72.5 -48t-66 -19.5t-53 -5q-113 0 -183 69q-73 72 -73 199zM126 264q-4 -121 79 -173q36 -23 80 -23q41 0 77 21
q88 50 88 177q0 113 -81 162q-39 23 -78 23q-23 0 -51 -10q-42 -16 -76.5 -58.5t-37.5 -118.5zM423 705l44 -1q0 -1 -3 -9.5t-6.5 -18.5t-7.5 -18q-30 -60 -89 -60q-27 0 -60 14q-4 2 -15.5 7t-17.5 7.5t-15 6t-17.5 5t-16.5 1.5q-16 0 -27.5 -6t-18 -13.5t-17.5 -23.5
l-41 1q8 30 15 45q32 60 93 60q29 0 67 -16q50 -24 73 -24q22 0 34 10t26 33z" />
    <glyph glyph-name="odieresis" unicode="&#xf6;" horiz-adv-x="583" 
d="M28 255q1 65 25 118q21 48 54 81t69.5 47.5t63 19.5t51.5 5q66 0 125 -29q43 -21 72.5 -54t42 -69.5t16.5 -62t4 -50.5q0 -65 -24 -120q-20 -48 -54 -80.5t-72.5 -46t-65.5 -18.5t-51 -5q-101 0 -169 57q-87 72 -87 207zM130 264q-2 -22 0.5 -47.5t22.5 -65.5t57 -62
q35 -22 78 -22q37 0 76 21q88 51 88 179q0 50 -15.5 87.5t-40.5 57t-50 29t-49 9.5q-41 0 -80 -23q-83 -50 -87 -163zM151 689h91v-94h-91v94zM341 691h89v-95h-89v95z" />
    <glyph glyph-name="divide" unicode="&#xf7;" 
d="M391 145q0 -24 -16.5 -40t-40.5 -15q-23 0 -39.5 16t-16.5 39q0 24 16.5 40.5t40.5 16.5t40 -16.5t16 -40.5zM391 434q0 -23 -16.5 -39t-39.5 -16q-24 1 -40.5 16.5t-16.5 39.5t16.5 40.5t40.5 16.5q24 -1 40 -17.5t16 -40.5zM667 251h-667v79h667v-79z" />
    <glyph glyph-name="oslash" unicode="&#xf8;" horiz-adv-x="583" 
d="M448 479l54 63l30 -23l-53 -66q25 -28 40 -53q34 -58 34 -139q0 -71 -30 -134q-21 -44 -55 -74t-71.5 -42.5t-63 -17t-49.5 -4.5q-45 0 -77 10t-79 34l-53 -58l-30 23l52 63q-23 30 -32.5 43.5t-24 55.5t-14.5 91q1 121 74.5 197.5t192.5 76.5q39 0 72 -8.5t45 -15
t38 -22.5zM159 130l234 283q-19 16 -25 20q-28 19 -80 19q-62 0 -102 -38q-66 -58 -66 -163q0 -30 7.5 -56t12.5 -35t19 -30zM422 386l-239 -282q60 -41 107 -41q28 0 68 16q33 16 55 42t31 54t12 47t3 36q0 63 -37 128z" />
    <glyph glyph-name="ugrave" unicode="&#xf9;" horiz-adv-x="562" 
d="M52 516h96v-333q3 -29 11 -47q26 -64 101 -64q61 0 101 50q30 36 41 116l4 279h95v-516h-86l-4 77l-7 -8q-6 -7 -14.5 -16t-15.5 -15q-61 -48 -136 -48q-85 3 -137 59q-28 30 -36.5 62.5t-12.5 88.5v315zM243 710l83 -133h-75l-136 133h128z" />
    <glyph glyph-name="uacute" unicode="&#xfa;" horiz-adv-x="562" 
d="M52 516h96v-333q3 -29 11 -47q26 -64 101 -64q61 0 101 50q30 36 41 116l4 279h95v-516h-86l-4 77l-7 -8q-6 -7 -14.5 -16t-15.5 -15q-61 -48 -136 -48q-85 3 -137 59q-28 30 -36.5 62.5t-12.5 88.5v315zM317 711h124l-136 -134h-71z" />
    <glyph glyph-name="ucircumflex" unicode="&#xfb;" horiz-adv-x="562" 
d="M52 516h96v-333q3 -29 11 -47q26 -64 101 -64q61 0 101 50q30 36 41 116l4 279h95v-516h-86l-4 77l-7 -8q-6 -7 -14.5 -16t-15.5 -15q-61 -48 -136 -48q-85 3 -137 59q-28 30 -36.5 62.5t-12.5 88.5v315zM234 713h95l99 -131h-85l-64 86l-74 -87h-82z" />
    <glyph glyph-name="udieresis" unicode="&#xfc;" horiz-adv-x="562" 
d="M152 515v-333q4 -31 11 -47q25 -64 99 -64q66 0 109 61q29 40 36 124v261h96v-515h-85l-3 76q-13 -13 -39 -37q-57 -48 -137 -48q-34 0 -62 9q-35 12 -64 40.5t-42 63.5q-13 36 -15 112v297h96zM142 692h91v-92h-91v92zM335 694h88v-94h-88v94z" />
    <glyph glyph-name="ydieresis" unicode="&#xff;" horiz-adv-x="479" 
d="M385 519l96 -1q-85 -235 -109 -298q-60 -165 -66 -181q-24 -68 -33 -90.5t-39 -79.5q-18 -27 -30 -39q-44 -44 -115 -44q-27 0 -62 8l6 75q36 -6 44 -6q40 0 69 29q23 22 48 92l-197 534l102 -1q19 -57 59 -173q7 -20 21 -56.5t19 -49.5q26 -67 42 -148q30 100 63 198
q22 66 82 231zM105 694h92v-94h-92v94zM299 694h90v-94h-90v94z" />
    <glyph glyph-name="dotlessi" unicode="&#x131;" horiz-adv-x="208" 
d="M55 518h95v-517h-95v517z" />
    <glyph glyph-name="OE" unicode="&#x152;" horiz-adv-x="917" 
d="M870 699v-87h-290v-203h268v-86h-268v-234h294v-87h-460q-20 1 -58 5q-108 13 -186 70q-133 101 -133 277q0 117 63 202.5t173 119.5q61 19 168 23h429zM479 91l-1 523h-66q-104 -4 -171 -50q-97 -66 -97 -207q0 -128 81 -200q53 -47 124 -61q45 -10 130 -5z" />
    <glyph glyph-name="oe" unicode="&#x153;" horiz-adv-x="917" 
d="M892 237h-361q0 -1 2 -11.5t4.5 -20t7 -22.5t9.5 -23q21 -41 61.5 -63.5t88.5 -22.5q56 0 138 43l4 -93q-98 -31 -159 -31q-102 0 -156 46q-16 13 -51 63q-14 -26 -24 -38q-59 -71 -170 -71q-112 0 -182 67q-75 71 -75 198q0 105 58 176q27 34 77 63t122 29q34 0 71 -9
q28 -8 51.5 -23t37.5 -29.5t38 -42.5q25 44 48 62q58 46 137 46q114 0 180 -95q20 -29 30 -64.5t11.5 -60.5t1.5 -73zM130 277q-8 -115 67 -177q38 -32 84 -32q34 0 72 19q38 21 59.5 61.5t25.5 65.5t4 48q0 35 -11 71q-17 52 -56 85.5t-89 33.5q-29 -1 -62 -14
q-29 -13 -49 -36t-29 -49.5t-12 -43.5t-4 -32zM530 308h263q-7 48 -19 77t-43 49q-29 20 -65 20q-30 0 -65 -21q-32 -21 -46 -49.5t-25 -75.5z" />
    <glyph glyph-name="Ydieresis" unicode="&#x178;" horiz-adv-x="646" 
d="M119 704l205 -311l206 311h118l-277 -405v-299h-99v299l-278 405h125zM161 886h93v-99h-93v99zM383 886h94v-98h-94v98z" />
    <glyph glyph-name="circumflex" unicode="&#x2c6;" horiz-adv-x="271" 
d="M4 713h96l99 -131h-85l-64 86l-74 -87h-83z" />
    <glyph glyph-name="caron" unicode="&#x2c7;" horiz-adv-x="271" 
d="M-12 708l65 -84l75 84h85l-112 -132h-97l-102 132h86z" />
    <glyph glyph-name="tilde" unicode="&#x2dc;" horiz-adv-x="271" 
d="M183 705l45 -1q0 -1 -3 -9.5t-7 -18.5t-8 -18q-9 -21 -31.5 -40.5t-57.5 -19.5q-27 0 -60 14q-4 2 -19 9t-21.5 9.5t-18.5 5.5t-22 3q-23 0 -35.5 -10t-27.5 -33l-42 1q9 30 16 45q10 22 33 41t60 19q28 0 66 -16q52 -24 73 -24q23 0 35 10t25 33z" />
    <glyph glyph-name="endash" unicode="&#x2013;" horiz-adv-x="542" 
d="M29 300h482v-76h-482v76z" />
    <glyph glyph-name="emdash" unicode="&#x2014;" 
d="M667 253h-667v79h667v-79z" />
    <glyph glyph-name="quoteleft" unicode="&#x2018;" horiz-adv-x="187" 
d="M104 704h90l-64 -248h-113z" />
    <glyph glyph-name="quoteright" unicode="&#x2019;" horiz-adv-x="187" 
d="M68 703h112l-88 -247h-89z" />
    <glyph glyph-name="quotesinglbase" unicode="&#x201a;" horiz-adv-x="187" 
d="M50 117h114l-89 -250h-89z" />
    <glyph glyph-name="quotedblleft" unicode="&#x201c;" horiz-adv-x="375" 
d="M110 700h90l-67 -241h-112zM296 701h85l-63 -241h-111z" />
    <glyph glyph-name="quotedblright" unicode="&#x201d;" horiz-adv-x="375" 
d="M61 700h111l-91 -242h-87zM244 700h110l-86 -241h-89z" />
    <glyph glyph-name="quotedblbase" unicode="&#x201e;" horiz-adv-x="375" 
d="M56 111h109l-87 -243h-87zM240 111h111l-91 -243h-85z" />
    <glyph glyph-name="dagger" unicode="&#x2020;" horiz-adv-x="479" 
d="M27 534h173v166h81v-167h170v-71h-170v-461h-80v460h-174v73z" />
    <glyph glyph-name="bullet" unicode="&#x2022;" horiz-adv-x="333" 
d="M297 353q0 -28 -11 -55q-34 -75 -117 -75q-55 0 -94 37.5t-39 92.5q0 24 10 48q16 38 49 60t74 22q54 0 90.5 -37.5t37.5 -92.5z" />
    <glyph glyph-name="ellipsis" unicode="&#x2026;" horiz-adv-x="1000" 
d="M890 51q0 -24 -16 -40.5t-40 -16.5t-40.5 16.5t-16.5 40.5q0 23 17 39.5t40 16.5q24 0 40 -16.5t16 -39.5zM557 51q0 -24 -16.5 -40.5t-40.5 -16.5q-23 0 -39.5 16.5t-16.5 40.5q0 13 4 22q15 34 53 34q23 0 39.5 -16.5t16.5 -39.5zM223 51q0 -24 -16 -40.5t-40 -16.5
t-40.5 16.5t-16.5 40.5q0 10 4 21q15 35 54 35q23 0 39 -16.5t16 -39.5z" />
    <glyph glyph-name="fraction" unicode="&#x2044;" horiz-adv-x="125" 
d="M199 705h47l-320 -702h-45z" />
    <glyph glyph-name="trademark" unicode="&#x2122;" horiz-adv-x="687" 
d="M636 374h-57l2 206q0 34 3 67q-6 -24 -17 -56l-67 -217h-51l-68 218q-3 9 -8.5 27t-8.5 27q4 -29 4 -66l3 -206h-57v332h79l83 -262l81 262h79v-332zM182 374h-59v283h-107v49h270v-49h-104v-283z" />
    <glyph glyph-name="minus" unicode="&#x2212;" 
d="M667 253h-667v79h667v-79z" />
    <glyph glyph-name="Acute" unicode="&#xf6c9;" horiz-adv-x="271" 
d="M85 900h124l-136 -134h-71z" />
    <glyph glyph-name="Caron" unicode="&#xf6ca;" horiz-adv-x="271" 
d="M-15 898l68 -86l79 86h80l-107 -128h-103l-102 128h85z" />
    <glyph glyph-name="Dieresis" unicode="&#xf6cb;" horiz-adv-x="271" 
d="M-110 886h94v-99h-94v99zM112 886h95v-98h-95v98z" />
    <glyph glyph-name="Grave" unicode="&#xf6ce;" horiz-adv-x="271" 
d="M14 900l82 -135h-77l-134 135h129z" />
    <glyph glyph-name="onefitted" unicode="&#xf6dc;" horiz-adv-x="375" 
d="M172 702h89v-700h-100v586l-108 -89l-59 62z" />
    <glyph glyph-name="fi" unicode="&#xfb01;" horiz-adv-x="562" 
d="M-1 516h120q0 57 3 86q6 68 29 100.5t60 46.5q32 13 78 13q21 0 65 -4l-6 -81q-28 6 -45 6q-22 0 -43 -9q-30 -15 -39 -49.5t-8 -108.5h136v-73h-135v-441h-94v441h-121v73zM403 742h103v-102h-103v102zM409 518h94v-517h-94v517z" />
    <glyph glyph-name="fl" unicode="&#xfb02;" horiz-adv-x="562" 
d="M-1 516h120q0 57 3 86q6 68 29 100.5t60 46.5q32 13 78 13q21 0 65 -4l-6 -81q-28 6 -45 6q-22 0 -43 -9q-30 -15 -39 -49.5t-8 -108.5h136v-73h-135v-441h-94v441h-121v73zM409 757h95v-755h-95v755z" />
    <glyph glyph-name="Circumflex" horiz-adv-x="271" 
d="M3 904h97l101 -133h-86l-66 87l-74 -86h-84z" />
    <glyph glyph-name="Tilde" horiz-adv-x="271" 
d="M192 898h42q0 -1 -1.5 -10t-4.5 -20.5t-6 -19.5q-10 -23 -34 -43.5t-63 -20.5q-32 0 -68 17q-6 3 -18 8.5t-19 8.5t-17.5 5.5t-20.5 2.5q-15 0 -26 -5q-20 -7 -39 -41h-44q6 36 13 53q29 62 89 61q32 0 99 -24q43 -17 57 -17t22 4q18 6 39 41z" />
    </font>
</defs>
</svg>
