<?xml version="1.0" standalone="no"?>
<!DOCTYPE svg PUBLIC "-//W3C//DTD SVG 1.1//EN" "http://www.w3.org/Graphics/SVG/1.1/DTD/svg11.dtd" >
<svg xmlns="http://www.w3.org/2000/svg" xmlns:xlink="http://www.w3.org/1999/xlink" version="1.1">
<metadata>
Created by FontForge 20170731 at Mon Apr 30 13:11:23 2007
 By Aleksey,,,
(c) COPYRIGHT H. BERTHOLD AG 1993 Alle Rechte vorbehalten.
</metadata>
<defs>
<font id="FrutigerBQ-Black" horiz-adv-x="604" >
  <font-face 
    font-family="Frutiger BQ"
    font-weight="500"
    font-stretch="normal"
    units-per-em="1000"
    panose-1="0 0 0 0 0 0 0 0 0 0"
    ascent="800"
    descent="-200"
    x-height="528"
    cap-height="701"
    bbox="-198 -262 992 948"
    underline-thickness="50"
    underline-position="-200"
    unicode-range="U+0020-FB02"
  />
<missing-glyph horiz-adv-x="271" 
 />
    <glyph glyph-name=".notdef" horiz-adv-x="271" 
 />
    <glyph glyph-name=".null" horiz-adv-x="0" 
 />
    <glyph glyph-name="nonmarkingreturn" horiz-adv-x="333" 
 />
    <glyph glyph-name="space" unicode=" " horiz-adv-x="271" 
 />
    <glyph glyph-name="exclam" unicode="!" horiz-adv-x="292" 
d="M260 702l-24 -466h-135l-25 466h184zM84 159h167v-158h-167v158z" />
    <glyph glyph-name="quotedbl" unicode="&#x22;" horiz-adv-x="396" 
d="M319 408h-31l-55 250q-4 28 0 42q5 19 23.5 34t50.5 15q23 0 41 -12t24 -35q2 -8 0 -32zM111 408h-32l-54 250q-6 23 0 43q6 22 27.5 35t45.5 13q23 0 41 -12t24 -34q2 -10 1 -33z" />
    <glyph glyph-name="numbersign" unicode="#" horiz-adv-x="583" 
d="M559 186h-116l-26 -186h-126l27 186h-99l-27 -186h-123l25 186h-94v124h112l13 95h-100v124h117l25 176h124l-24 -176h99l24 176h125l-24 -176h92v-124h-109l-13 -95h98v-124zM335 310l13 95h-98l-14 -95h99z" />
    <glyph glyph-name="dollar" unicode="$" 
d="M268 718v83h55v-82q100 -5 198 -30l-13 -134q-42 19 -74 26.5t-106 13.5v-153q45 -11 60 -16q55 -15 92 -37t63 -63q32 -53 32 -109q0 -27 -9 -56q-25 -87 -107 -132q-49 -27 -135 -37v-87h-56v85q-70 3 -107.5 8.5t-105.5 21.5l15 144q46 -19 82 -26.5t115 -11.5v165
q-92 23 -133 46q-50 27 -78 73t-28 103q0 62 36 112q24 32 61 52t64 26t79 15zM273 451v143q-19 -3 -28 -5.5t-21 -10.5t-20 -21q-9 -18 -9 -33q0 -17 11 -35q8 -12 20 -20t20.5 -10.5t26.5 -7.5zM323 285v-160q19 4 30 7t24 11.5t21 22.5q10 20 10 37t-9 33
q-12 22 -29 31.5t-47 17.5z" />
    <glyph glyph-name="percent" unicode="%" horiz-adv-x="917" 
d="M25 479q-2 111 36 167q44 67 134 67q106 0 146 -84q14 -27 20 -73q4 -36 4 -67q0 -90 -22 -141q-13 -35 -49 -63.5t-97 -28.5q-78 0 -120 42q-19 19 -29 45q-21 48 -23 136zM137 479q0 -44 7 -79q5 -36 23 -53q14 -12 28 -12q7 0 23 8q22 18 27 55q7 35 7 102
q0 61 -16 100q-12 34 -42 34t-44 -45q-13 -38 -13 -110zM519 698h116l-248 -698h-113zM543 223q0 23 1 35q0 102 56 154q18 18 47 29q34 12 70 12q74 0 119 -50q20 -24 28 -44q10 -25 15 -69q4 -31 4 -67q0 -95 -20 -141q-15 -30 -32 -47q-43 -43 -117 -43q-85 0 -131 61
q-19 27 -29 61q-11 39 -11 109zM656 233q0 -54 9 -100q2 -15 6 -24q13 -38 43 -38q24 0 38 26q20 34 20 123q0 46 -3 71q-6 43 -25 66q-16 16 -30 17q-27 -3 -40 -29q-16 -35 -18 -112z" />
    <glyph glyph-name="ampersand" unicode="&#x26;" horiz-adv-x="750" 
d="M152 394l-27 24q-62 62 -62 137q0 44 21 77q25 39 81.5 66.5t140.5 27.5q72 0 121 -18q118 -42 118 -156q0 -85 -76 -143q-21 -15 -70 -40l124 -119q25 40 33 63.5t15 70.5h155q-1 -39 -5 -59q-12 -75 -56 -138q-16 -21 -44 -48l125 -139h-196l-43 48
q-35 -22 -51.5 -30.5t-61 -20t-98.5 -11.5q-87 0 -146 27t-89 64q-45 51 -45 129q0 86 73 147q17 13 63 41zM413 144l-161 160q-21 -14 -31 -23q-34 -32 -34 -69q0 -25 13 -49q32 -57 106 -57q40 0 107 38zM299 444q27 16 40.5 26t29 31t15.5 45q0 15 -5 26q-8 19 -27.5 29
t-42.5 10q-16 0 -29 -4q-27 -9 -39 -29t-12 -35q0 -18 13.5 -39t25 -32t31.5 -28z" />
    <glyph glyph-name="quotesingle" unicode="'" horiz-adv-x="208" 
d="M121 408h-32l-54 250l-1 8q-1 8 -1 17t2 16q4 18 23 34t51 16q23 0 40 -11q19 -13 23 -28t2 -40z" />
    <glyph glyph-name="parenleft" unicode="(" horiz-adv-x="354" 
d="M214 766h148l-61 -111q-27 -57 -39 -92q-43 -119 -43 -259q0 -48 7 -108q6 -43 17.5 -84t21 -66.5t32.5 -78.5l63 -112h-147l-78 120q-4 9 -11.5 24.5t-13.5 28.5t-11 25q-48 112 -48 254q0 63 8 117q10 69 30 120t61 127z" />
    <glyph glyph-name="parenright" unicode=")" horiz-adv-x="354" 
d="M-10 760h146q45 -63 60 -87q104 -164 104 -363q0 -70 -12.5 -135.5t-28 -109.5t-42 -91.5t-41.5 -69t-41 -54.5h-146q30 50 44 76q9 16 37 75q20 52 28.5 76.5t20.5 90t12 136.5q0 54 -5 104q-8 68 -24 117.5t-50 125.5z" />
    <glyph glyph-name="asterisk" unicode="*" horiz-adv-x="458" 
d="M55 620l135 -64l-22 147h119l-17 -143l132 63l36 -114l-142 -31l101 -103l-99 -71l-69 126l-71 -128l-98 72l103 105l-145 25z" />
    <glyph glyph-name="plus" unicode="+" horiz-adv-x="500" 
d="M467 228h-154v-156h-127v156h-153v128h153v154h127v-154h154v-128z" />
    <glyph glyph-name="comma" unicode="," horiz-adv-x="250" 
d="M64 160h171l-100 -273h-138z" />
    <glyph glyph-name="hyphen" unicode="-" horiz-adv-x="354" 
d="M37 361h277v-134h-277v134z" />
    <glyph glyph-name="period" unicode="." horiz-adv-x="250" 
d="M39 162h171v-161h-171v161z" />
    <glyph glyph-name="slash" unicode="/" horiz-adv-x="417" 
d="M260 711h152l-261 -708h-149z" />
    <glyph glyph-name="zero" unicode="0" 
d="M28 345q0 186 57 274q19 28 45 48q66 53 170 53q108 0 172 -55q101 -83 101 -309q0 -132 -35 -220q-15 -40 -36 -67q-67 -83 -205 -83q-31 0 -54 3q-104 16 -157 96q-56 86 -58 260zM209 345q-1 -40 6 -98.5t20 -86.5q11 -26 30.5 -38t34.5 -12t32 12q38 26 50 103
q9 66 9 149q0 108 -23 163q-23 56 -67 56q-61 0 -78 -94q-14 -66 -14 -154z" />
    <glyph glyph-name="one" unicode="1" 
d="M282 702h164v-701h-177v520l-143 -101l-84 125z" />
    <glyph glyph-name="two" unicode="2" 
d="M59 529l-12 148l125 31q77 11 109 11q65 0 113 -18q64 -23 100 -73.5t36 -118.5q0 -45 -18.5 -90t-38 -72t-57.5 -73l-90 -95l-52 -47l273 3v-136h-512v132q84 70 139 121q13 12 38.5 37.5l38.5 38.5q16 18 24 28q7 6 21 22.5t30.5 49.5t16.5 61q0 18 -9 39
q-23 51 -96 51q-53 0 -119 -24q-17 -6 -60 -26z" />
    <glyph glyph-name="three" unicode="3" 
d="M152 297v127h23.5h22.5h19t18 0.5t15.5 1t15.5 1.5t13 2t13 3t11 4t11 5q39 21 39 63q0 27 -19 47q-32 35 -106 35q-57 0 -163 -28l-11 133q112 30 204 30q190 0 251 -96q28 -43 28 -99q0 -87 -70 -133q-9 -6 -22.5 -12.5t-24.5 -10.5l-12 -5q46 -15 65 -27
q27 -16 49.5 -49.5t22.5 -84.5q0 -75 -48 -129q-35 -38 -102.5 -64t-165.5 -26q-83 0 -196 28l6 145q95 -37 179 -37q36 0 62 7q35 8 57 29t22 53q0 37 -26 58t-63 26q-23 3 -118 3z" />
    <glyph glyph-name="four" unicode="4" 
d="M18 257l263 446h207v-444h77v-127h-78v-132h-169v132h-300v125zM328 558l-179 -301h174z" />
    <glyph glyph-name="five" unicode="5" 
d="M65 321v382h464v-130h-296v-113q8 0 22.5 1t22.5 1q164 2 232 -80q49 -63 49 -145q0 -55 -23 -106t-65 -84q-79 -61 -221 -61q-94 1 -192 27v148q97 -38 167 -38q91 0 126 46q21 28 21 59q0 52 -44 81q-39 25 -123 25q-43 0 -140 -13z" />
    <glyph glyph-name="six" unicode="6" 
d="M530 691l-13 -136q-101 35 -151 35q-76 -1 -118 -50q-22 -25 -33 -58q-10 -32 -12 -96q1 1 5.5 6.5t11 12t12.5 11.5q44 39 115 39q97 0 154 -56q25 -24 47 -68.5t22 -103.5q-1 -54 -24 -109q-26 -55 -82.5 -94.5t-154.5 -39.5q-91 0 -152 39q-32 20 -60 58
q-66 90 -66 246q0 191 83 292q37 45 80 66q68 35 164 35q66 0 172 -29zM214 232q-3 -24 1 -45q7 -34 31.5 -58t56.5 -24q41 0 66 33t25 76q0 42 -25 75.5t-65 33.5q-19 0 -38 -9q-45 -20 -52 -82z" />
    <glyph glyph-name="seven" unicode="7" 
d="M30 702h514v-145q-32 -78 -55 -129l-96 -210q-43 -94 -97 -217h-202l260 566h-324v135z" />
    <glyph glyph-name="eight" unicode="8" 
d="M168 364q-44 22 -64 39q-56 46 -56 129q0 66 49 118q73 71 216 71q100 0 166 -48q22 -16 40 -37q36 -44 36 -99q0 -30 -14.5 -69t-52.5 -69q-19 -15 -54 -32q35 -10 53 -20q41 -25 65.5 -69t24.5 -92q0 -59 -37 -109q-70 -93 -234 -93q-81 1 -139.5 24.5t-88.5 55.5
q-51 54 -51 127q0 96 80 145q25 16 61 28zM290 306q-33 -14 -52 -30q-37 -33 -38 -75q0 -16 8 -33q15 -35 43.5 -48t51.5 -13q40 1 68.5 27.5t28.5 67.5q0 28 -18 51q-24 29 -92 53zM307 419q31 12 44 22q13 8 26.5 28t13.5 48q0 21 -7 36q-21 47 -83 47q-29 -1 -44 -10
q-44 -21 -44 -71q0 -22 13 -43q19 -33 81 -57z" />
    <glyph glyph-name="nine" unicode="9" 
d="M66 16l14 140q86 -38 155 -38q78 0 118 51q25 30 34 65q7 28 10 84q-21 -25 -31 -33q-47 -36 -116 -36q-83 0 -143 49q-32 26 -51 67.5t-22.5 67t-3.5 47.5q0 84 47 145q73 96 211 96q34 0 76 -9q96 -22 148 -102q57 -86 57 -226q0 -190 -79 -293q-18 -24 -47 -47
q-78 -59 -201 -59q-76 0 -176 31zM210 506q-7 -43 15 -80q24 -45 72 -45q42 0 67 32t25 76q0 16 -6 38q-10 31 -33 50.5t-53 19.5q-31 -1 -56.5 -21t-30.5 -70z" />
    <glyph glyph-name="colon" unicode=":" horiz-adv-x="292" 
d="M79 162h171v-160h-171v160zM79 529h171v-161h-171v161z" />
    <glyph glyph-name="semicolon" unicode=";" horiz-adv-x="292" 
d="M100 161h174l-104 -274h-139zM92 530h171v-163h-171v163z" />
    <glyph glyph-name="less" unicode="&#x3c;" horiz-adv-x="500" 
d="M500 69l-499 220v124l499 225v-139l-328 -148l328 -144v-138z" />
    <glyph glyph-name="equal" unicode="=" horiz-adv-x="500" 
d="M500 123h-500v127h500v-127zM500 331h-500v127h500v-127z" />
    <glyph glyph-name="greater" unicode="&#x3e;" horiz-adv-x="500" 
d="M0 69v138l329 144l-329 148v139l500 -225v-124z" />
    <glyph glyph-name="question" unicode="?" horiz-adv-x="521" 
d="M338 235h-146q0 35 5 59q10 45 62 103q47 55 58 82q7 18 7 34q0 35 -29.5 58.5t-89.5 23.5q-67 0 -151 -31l-7 137q106 26 213 26q57 0 94 -8q65 -15 109.5 -58t44.5 -108q0 -44 -26 -91q-3 -6 -27 -40l-68 -81q-26 -30 -34.5 -48t-14.5 -58zM179 158h167v-157h-167v157z
" />
    <glyph glyph-name="at" unicode="@" horiz-adv-x="896" 
d="M556 463l10 40h90l-33 -159q-20 -98 -26 -142q-2 -16 -2 -24q0 -13 6 -20t13 -7q26 0 60 46q69 93 69 222q0 85 -44 140q-24 30 -70.5 52t-110.5 22q-122 0 -224 -86q-56 -49 -100 -127t-44 -185q0 -128 80 -201q88 -79 224 -79q135 0 256 87q25 18 70 59l46 -62
q-56 -50 -79 -66q-135 -97 -291 -97q-147 0 -254 78q-65 49 -97 115q-36 70 -36 169q0 107 45.5 206.5t134.5 170.5q10 8 18 14q34 25 83 47q80 36 177 36q114 0 191 -57q30 -21 55 -55q54 -76 54 -178q0 -130 -64 -234q-26 -42 -55 -69q-57 -53 -118 -53q-56 0 -80 38
q-7 10 -12 31q-16 -19 -28 -30q-44 -38 -99 -38q-42 0 -73 22q-64 42 -64 149q0 88 44 168q24 35 34 48q42 48 93 63q31 7 48 7q50 0 83 -34q6 -6 20 -27zM523 350q0 44 -26 68q-19 16 -41 16q-51 0 -86 -65q-33 -61 -33 -130q0 -42 19.5 -62.5t44.5 -20.5q23 0 46 18t38 42
q39 63 38 134z" />
    <glyph glyph-name="A" unicode="A" horiz-adv-x="771" 
d="M268 703h231l266 -703h-201l-53 144h-267l-54 -143h-188zM380 556l-93 -282h180z" />
    <glyph glyph-name="B" unicode="B" horiz-adv-x="667" 
d="M339 -1h-280v705h274q44 0 65 -1q15 -1 25.5 -1.5t34 -5t41.5 -11.5t40 -20.5t36.5 -32t24.5 -47t10 -63.5q0 -75 -46 -118q-24 -23 -79 -45q54 -15 70 -25q77 -44 77 -144q0 -99 -85 -149q-30 -18 -69.5 -27.5t-65.5 -11.5t-73 -3zM325 574h-80v-155h67q3 0 9.5 0.5
t9.5 0.5q52 4 77 33q17 20 17 44q0 21 -11 37q-9 15 -25 23.5t-28.5 11t-35.5 5.5zM324 293h-79v-163h104q25 2 37 6q32 11 44.5 34t12.5 43q0 40 -39 65q-24 15 -80 15z" />
    <glyph glyph-name="C" unicode="C" horiz-adv-x="688" 
d="M650 684l-15 -149q-41 17 -60 24t-51 14t-63 7q-41 0 -80 -13q-47 -15 -79 -43t-45.5 -61t-18 -57.5t-4.5 -49.5q0 -90 51 -148q69 -79 187 -79q16 0 31.5 1.5t27.5 3t25.5 5t22 6t21 7t17.5 6.5t15.5 6.5t12.5 5.5l10 -157q-35 -11 -54.5 -16t-57.5 -9.5t-90 -4.5
q-53 0 -93 6q-152 20 -241 127q-82 98 -82 240q0 133 65 221q26 36 66 66q105 78 273 78q57 0 98 -8t111 -29z" />
    <glyph glyph-name="D" unicode="D" horiz-adv-x="771" 
d="M306 -1h-246v702h214q127 -2 183 -11q133 -23 203 -114q68 -89 68 -227q0 -183 -121 -276q-40 -31 -95.5 -48t-95.5 -20.5t-110 -5.5zM331 561h-82v-423h74q93 8 144 50q67 57 67 160q0 106 -60 161q-21 21 -56 35q-33 13 -87 17z" />
    <glyph glyph-name="E" unicode="E" 
d="M59 701h496v-135h-308v-139h289v-136h-289v-156h319v-135h-507v701z" />
    <glyph glyph-name="F" unicode="F" horiz-adv-x="562" 
d="M61 703h475v-133l-286 -3v-150h275v-135h-275v-281h-189v702z" />
    <glyph glyph-name="G" unicode="G" horiz-adv-x="771" 
d="M700 688l-17 -148q-56 25 -93.5 35t-88.5 10q-163 -1 -231 -108q-36 -55 -36 -122q0 -42 15 -84q16 -46 44.5 -77t61.5 -44t57 -17.5t47 -4.5q31 0 77 13v135h-109v133h289v-386q-70 -20 -145 -29l-109 -6q-121 5 -178 21q-124 34 -190 132q-56 87 -56 207q0 169 101 266
q111 107 341 107q100 0 175 -18q7 -2 14.5 -4.5l16.5 -5.5t14 -5z" />
    <glyph glyph-name="H" unicode="H" horiz-adv-x="729" 
d="M61 701h191v-261h222v262h191v-703h-191v298h-223v-297h-190v701z" />
    <glyph glyph-name="I" unicode="I" horiz-adv-x="313" 
d="M60 701h192v-700h-192v700z" />
    <glyph glyph-name="J" unicode="J" horiz-adv-x="437" 
d="M184 280v425h194v-477q-3 -41 -6.5 -63.5t-16 -51.5t-35.5 -53q-68 -69 -190 -69q-60 0 -124 20v151q39 -11 67 -11q55 0 85 37q12 12 19 35q6 19 7 57z" />
    <glyph glyph-name="K" unicode="K" horiz-adv-x="688" 
d="M250 702v-287q62 90 95 135q37 51 113 153h224l-252 -325q141 -195 193 -264q50 -66 86 -112h-236l-224 320v-321h-189v701h190z" />
    <glyph glyph-name="L" unicode="L" horiz-adv-x="562" 
d="M61 701h191v-558h284v-143h-475v701z" />
    <glyph glyph-name="M" unicode="M" horiz-adv-x="1021" 
d="M60 703h290q46 -140 71 -210q6 -17 17.5 -48t20.5 -56.5t16 -48.5q12 -39 32 -117q24 84 35 118q6 18 18.5 52.5t18.5 51.5q9 26 25.5 76.5t25.5 76.5q7 20 20 57t17 47h288v-703h-184l5 567q-15 -57 -30 -99q-6 -18 -20 -55t-20 -56q-8 -24 -23.5 -71.5t-22.5 -69.5
q-9 -27 -44 -125q-20 -62 -31 -93h-168l-185 550q1 -13 2.5 -37t2.5 -43.5t1 -36.5v-81q0 -117 2 -349h-180v703z" />
    <glyph glyph-name="N" unicode="N" horiz-adv-x="792" 
d="M59 701l231 -1q67 -121 124 -220q9 -17 26.5 -47t31.5 -55t26 -48q13 -23 58 -119q-8 183 -8 219q-1 135 0 271h176v-701h-235q-46 86 -104 188q-77 134 -102 185q-13 25 -57 121q7 -165 8 -297v-196h-175v700z" />
    <glyph glyph-name="O" unicode="O" horiz-adv-x="792" 
d="M37 358q0 140 67 231q41 54 103 88q85 44 185 44q98 -1 166.5 -33t106.5 -75q34 -37 60 -104t26 -156q0 -157 -79 -253q-48 -58 -122 -88.5t-154 -30.5q-150 0 -246 87q-57 52 -85.5 129t-27.5 161zM235 366q0 -92 25 -149q44 -96 136 -96q77 0 124 74q35 56 35 150
q0 106 -37 164q-14 21 -31 38q-46 36 -94 36q-32 0 -63 -16q-85 -45 -95 -201z" />
    <glyph glyph-name="P" unicode="P" horiz-adv-x="625" 
d="M60 702h281q16 0 50 -2q130 -13 181 -96q33 -57 33 -129q0 -81 -38 -136q-17 -25 -44 -45q-29 -21 -59 -30q-60 -21 -155 -21q-1 0 -58 3v-244h-191v700zM247 570l1 -189q31 -5 69.5 -1t64.5 23q34 25 34 72q0 54 -49 80q-35 19 -120 15z" />
    <glyph glyph-name="Q" unicode="Q" horiz-adv-x="792" 
d="M579 24l167 -159h-215l-112 119h-70q-109 6 -194 77q-61 52 -91 130t-30 164q0 187 119 289q93 78 241 78q177 0 271 -110q85 -99 85 -263q0 -163 -86 -258q-24 -27 -85 -67zM233 357q-1 -99 36 -159q47 -76 127 -76q76 0 121 70q35 56 35 155q0 18 -2 50q-8 96 -61 148
q-42 40 -97 40q-37 0 -67 -18q-90 -49 -92 -210z" />
    <glyph glyph-name="R" unicode="R" horiz-adv-x="667" 
d="M60 701h339l48 -3q110 -14 151 -89q23 -43 23 -95q0 -66 -35 -109q-28 -35 -97 -62q9 -2 27 -15q26 -20 55 -89l86 -240h-198l-53 168q-25 68 -53.5 86.5t-102.5 16.5v-270h-190v701zM245 570v-165q13 0 38.5 -0.5t37.5 -0.5q109 0 109 82q0 70 -78 80q-11 2 -107 4z" />
    <glyph glyph-name="S" unicode="S" horiz-adv-x="583" 
d="M520 692l-13 -142q-103 36 -162 36q-58 0 -87 -15q-15 -8 -25 -23t-10 -30q0 -17 12 -31q19 -26 77 -42q121 -35 171 -76q70 -61 70 -161q0 -106 -87 -169q-79 -55 -218 -55q-21 0 -42 1.5t-40.5 4t-34.5 5t-32.5 7t-26.5 6.5t-24.5 6.5t-18.5 5.5l17 150
q61 -23 101 -33.5t88 -10.5q26 0 47 3q25 3 42 13q32 22 32 56q0 18 -10 35q-11 16 -27.5 25t-54.5 21q-123 37 -167 72q-71 59 -71 153q0 91 69 150q75 66 222 66q75 0 203 -28z" />
    <glyph glyph-name="T" unicode="T" horiz-adv-x="562" 
d="M0 701h538v-140h-172v-560h-190v559h-176v141z" />
    <glyph glyph-name="U" unicode="U" horiz-adv-x="729" 
d="M59 703h189v-437q2 -65 25 -100q31 -45 90 -45t90 43q14 20 20 42.5t7 68.5v429h189v-452q-7 -81 -28 -125q-36 -74 -113 -109t-167 -35q-48 0 -87 9q-138 30 -188 132q-18 35 -27 111v468z" />
    <glyph glyph-name="V" unicode="V" horiz-adv-x="708" 
d="M509 701h194l-230 -702h-236l-236 702l201 -1q11 -36 32.5 -107.5t32.5 -107.5q28 -88 40 -133q19 -65 53 -197q30 132 49 198q10 38 31 106.5t28 92.5q8 27 21.5 77.5t19.5 71.5z" />
    <glyph glyph-name="W" unicode="W" horiz-adv-x="1000" 
d="M196 703l91 -536q12 100 27 194q7 43 29 158q22 111 35 184h242q31 -135 53 -251q22 -112 50 -290q12 104 20 156q5 31 16 93t16 93q22 132 32 198h185l-148 -702h-244q-35 162 -62 304q-32 186 -44 257q-23 -180 -40 -274q-21 -126 -53 -286h-240l-158 702h193z" />
    <glyph glyph-name="X" unicode="X" horiz-adv-x="708" 
d="M235 366l-207 333h212l122 -214l121 215h203l-207 -343l218 -358h-212l-134 241l-135 -240h-209z" />
    <glyph glyph-name="Y" unicode="Y" horiz-adv-x="708" 
d="M494 702h207l-254 -443v-259h-191v257l-255 445h220q11 -21 32.5 -63t32.5 -63q5 -9 20 -38.5t23 -46.5q9 -19 29 -72q9 25 15.5 41t14 32t11.5 24t16.5 31.5t20.5 39.5q10 19 58 115z" />
    <glyph glyph-name="Z" unicode="Z" 
d="M34 160l325 405h-319v137h543v-147l-337 -416h344v-139h-556v160z" />
    <glyph glyph-name="bracketleft" unicode="[" horiz-adv-x="354" 
d="M81 763h272v-102h-120v-708h120v-101h-272v911z" />
    <glyph glyph-name="backslash" unicode="\" horiz-adv-x="354" 
d="M230 -18l-228 724h128l228 -724h-128z" />
    <glyph glyph-name="bracketright" unicode="]" horiz-adv-x="354" 
d="M-3 -46h122v707h-119v101h270v-911h-273v103z" />
    <glyph glyph-name="asciicircum" unicode="^" horiz-adv-x="729" 
d="M615 311h-138l-110 231l-116 -231h-137l203 395h104z" />
    <glyph glyph-name="underscore" unicode="_" horiz-adv-x="500" 
d="M510 -240h-520v127h520v-127z" />
    <glyph glyph-name="grave" unicode="`" horiz-adv-x="271" 
d="M8 711l108 -144h-120l-189 144h201z" />
    <glyph glyph-name="a" unicode="a" 
d="M96 387v120q128 34 200 34q116 0 186 -54q36 -27 51 -65q14 -32 18 -109v-313h-158v81q-29 -36 -41 -47q-52 -48 -141 -48q-41 0 -77 14q-49 19 -80 63.5t-31 98.5q0 47 21.5 78.5t45.5 46.5q50 34 181 43h109q0 23 -5 38q-13 30 -47 44.5t-71 14.5q-57 0 -161 -40z
M381 235q-66 3 -68 3q-62 0 -93 -26q-23 -20 -23 -49q0 -31 22 -49t52 -18q50 0 83 43q16 20 21 41t6 55z" />
    <glyph glyph-name="b" unicode="b" horiz-adv-x="667" 
d="M54 759h180v-309q14 22 34 40q60 52 146 52q66 0 110 -30t67 -65q44 -68 44 -173q0 -158 -96 -238q-59 -49 -138 -49q-41 0 -73 10.5t-54.5 32t-31.5 33t-23 33.5v-96h-165v759zM237 280q-5 -65 23 -109q18 -22 23 -26q31 -22 64 -22q39 0 67 29q39 40 39 116q0 24 -7 56
q-27 82 -97 82q-25 0 -48 -11q-57 -28 -64 -115z" />
    <glyph glyph-name="c" unicode="c" horiz-adv-x="500" 
d="M476 514l-11 -131q-62 26 -102 26q-27 0 -53 -9q-15 -5 -29 -13t-30.5 -23t-26.5 -40t-10 -56q0 -35 12 -63q11 -27 32 -45.5t45 -26t40 -10t29 -2.5q37 0 107 25v-134q-80 -25 -158 -25q-147 0 -228 85q-70 75 -70 194q0 107 55 177q39 49 105 75.5t135 26.5
q59 -1 158 -31z" />
    <glyph glyph-name="d" unicode="d" horiz-adv-x="667" 
d="M430 446v313h180v-760h-167v88l-4 -7q-4 -6 -10 -14t-10 -13q-61 -67 -154 -67q-20 0 -44 4.5t-61.5 23t-64.5 49.5q-66 78 -66 205q0 60 18 111q24 70 81 115.5t129 45.5q76 0 132 -47q12 -10 41 -47zM212 272q-4 -90 50 -132q23 -20 56 -20q27 0 50 13q60 35 60 131
q0 42 -12 71q-13 30 -40 49t-59 20q-32 0 -57 -19q-44 -34 -48 -113z" />
    <glyph glyph-name="e" unicode="e" 
d="M574 210l-374 -1q13 -43 22 -56q13 -20 46 -35t81 -15q59 0 174 41l3 -124q-79 -28 -136 -33q-27 -2 -57 -2q-188 0 -264 122q-44 70 -44 165q0 108 61 181q75 91 220 91q146 0 213 -102q29 -41 42 -95q11 -49 13 -137zM198 315h212q-6 33 -6 35q-9 44 -45 66
q-25 15 -53 15q-29 0 -53 -14q-27 -15 -37 -37.5t-18 -64.5z" />
    <glyph glyph-name="f" unicode="f" horiz-adv-x="437" 
d="M2 527h106q-2 75 5 105q18 68 67 101q53 36 148 36q39 0 92 -13l-8 -118q-35 7 -46 7q-23 0 -40 -10q-16 -9 -24.5 -29t-9.5 -35t-1 -41h130v-127h-129v-403h-183v403h-107v124z" />
    <glyph glyph-name="g" unicode="g" horiz-adv-x="667" 
d="M443 448v82h168v-514q-3 -107 -58 -167q-77 -87 -247 -87q-113 0 -212 35l8 136q118 -46 180 -46q77 0 118 39q12 9 23 32q17 40 13 120q-14 -22 -33 -39q-27 -25 -68.5 -39t-80.5 -14q-47 0 -86 19q-55 26 -98 90t-43 168q0 124 62 200q14 17 33.5 33t58 31.5t82.5 15.5
q86 0 144 -53q15 -14 36 -42zM211 270q-2 -78 42 -120q29 -29 66 -29q49 0 83 43q29 37 29 95q0 25 -3 43q-7 52 -43 82q-26 23 -62 23q-26 0 -50 -12q-58 -31 -62 -125z" />
    <glyph glyph-name="h" unicode="h" horiz-adv-x="667" 
d="M235 760l1 -308q11 16 41 41q61 49 134 49q93 0 152 -71q19 -23 29.5 -52t12.5 -49t4 -62v-308h-182v281q-1 24 -3 38t-11 31.5t-24 27.5q-20 14 -47 14q-48 0 -78 -47q-24 -35 -24 -112v-233h-186v760h181z" />
    <glyph glyph-name="i" unicode="i" horiz-adv-x="292" 
d="M52 741h184v-133h-184v133zM54 529h182v-528h-182v528z" />
    <glyph glyph-name="j" unicode="j" horiz-adv-x="292" 
d="M53 13v516h183v-545q-2 -49 -9.5 -79.5t-31.5 -59.5q-50 -61 -149 -61q-59 0 -98 11l6 114l11 -1q11 -2 18 -2q16 0 33 9q35 19 37 98zM54 742h184v-133h-184v133z" />
    <glyph glyph-name="k" unicode="k" 
d="M54 759h181v-456l153 227h201l-183 -243l194 -287h-216l-148 254v-253h-182v758z" />
    <glyph glyph-name="l" unicode="l" horiz-adv-x="292" 
d="M54 758h181v-757h-181v757z" />
    <glyph glyph-name="m" unicode="m" horiz-adv-x="1021" 
d="M53 528h168l1 -98q9 19 28 40q30 34 76 54t92 20q74 0 122 -40q18 -16 45 -62q25 33 38 45q60 55 161 55q32 0 59 -8q27 -7 59.5 -31.5t47.5 -66.5q9 -28 12 -94v-342h-184v272q0 25 -1 38t-7.5 31t-20.5 31q-22 20 -51 20q-27 0 -53 -20q-19 -15 -29 -36.5t-12.5 -39
t-3.5 -47.5v-249h-184v276q-2 45 -8.5 67t-23.5 34q-19 15 -47 15q-48 0 -78 -47q-22 -33 -24 -106v-238h-182v527z" />
    <glyph glyph-name="n" unicode="n" horiz-adv-x="667" 
d="M55 525h167l1 -90q11 19 32 41q61 64 156 64q42 0 74 -12q45 -15 71 -44.5t36 -56.5q13 -32 18 -105v-323h-183v274q0 25 -1.5 39.5t-9 33t-22.5 31.5q-21 19 -50 19q-30 0 -59 -22q-8 -6 -14.5 -13t-11 -15t-8.5 -15t-6 -15.5t-3.5 -14.5t-2.5 -14t-1 -12t-0.5 -10.5
t-0.5 -7.5v-257h-182v525z" />
    <glyph glyph-name="o" unicode="o" horiz-adv-x="667" 
d="M27 268q0 55 17 100q25 72 93 124t194 53q139 0 221 -71q83 -71 83 -204q0 -120 -65 -192q-32 -37 -91.5 -64t-145.5 -27q-135 0 -218 71q-88 75 -88 210zM213 272q-4 -90 51 -136q29 -25 67 -25q28 0 52 13q67 39 66 141q0 52 -20 92q-33 62 -93 62q-30 0 -56 -14
q-62 -32 -67 -133z" />
    <glyph glyph-name="p" unicode="p" horiz-adv-x="667" 
d="M216 528l1 -97q16 28 33 46q62 65 161 65q116 0 177 -94q45 -70 45 -183q0 -155 -101 -234q-54 -42 -135 -42q-74 0 -125 40q-13 10 -40 42v-284h-180q-2 180 0 360v123q1 123 0 123q-1 23 -2.5 68t-2.5 67h169zM234 270q-5 -83 48 -124q30 -23 64 -23q33 0 58 21
q47 37 47 123q0 31 -7 59q-9 34 -35 57t-59 23q-29 0 -54 -15q-58 -32 -62 -121z" />
    <glyph glyph-name="q" unicode="q" horiz-adv-x="667" 
d="M444 433v97h166v-744h-182v282q-15 -17 -25 -26.5t-31 -24.5t-49 -22.5t-63 -7.5q-89 0 -149 55q-35 33 -56 78q-13 29 -22 72q-7 30 -7 74q0 113 53 187q31 42 79 66.5t101 24.5q57 0 106 -30q16 -10 31.5 -25t22 -23t25.5 -33zM211 273q-4 -86 48 -128q23 -23 60 -23
q31 0 57 18q53 35 53 121q0 87 -53 126q-30 21 -62 21q-21 0 -40 -11q-58 -31 -63 -124z" />
    <glyph glyph-name="r" unicode="r" horiz-adv-x="437" 
d="M217 528l5 -107q16 40 29 56q43 58 126 58q19 0 56 -5l-4 -154q-37 6 -61 6q-70 0 -102 -46q-24 -34 -30 -116v-219h-183q-2 122 0 242q0 151 -1 181q0 18 -2 52t-2 52h169z" />
    <glyph glyph-name="s" unicode="s" horiz-adv-x="500" 
d="M439 512l-13 -127q-63 28 -114 34q-18 3 -39 3q-24 0 -40 -8q-28 -13 -28 -35q2 -23 31 -36q8 -3 60 -12q78 -22 101 -35q16 -8 29 -21q43 -43 43 -111q0 -90 -75 -137q-57 -36 -171 -36q-55 0 -91 6t-95 23l8 129q73 -28 134 -35q20 -3 41 -3q23 0 35 5q35 12 35 38
q0 9 -8 21q-14 19 -57 27q-102 21 -146 56q-50 41 -50 111q0 87 79 135q58 36 158 36q72 0 173 -28z" />
    <glyph glyph-name="t" unicode="t" horiz-adv-x="437" 
d="M1 530h113v118l172 52v-170h128v-126h-128v-181q0 -68 29 -92q20 -17 53 -17q14 0 49 7v-118q-75 -10 -114 -10q-97 0 -146 49q-27 30 -39 63q-9 27 -13 90v209h-104v126z" />
    <glyph glyph-name="u" unicode="u" horiz-adv-x="667" 
d="M234 528v-273q1 -28 2.5 -42.5t11 -33t27.5 -29.5q23 -15 48 -15q47 0 80 49q20 31 24 107v237h182v-528h-169v92q-36 -45 -41 -50q-57 -53 -155 -53q-34 0 -60 7q-38 10 -69.5 39.5t-45.5 67.5q-11 31 -17 103v322h182z" />
    <glyph glyph-name="v" unicode="v" 
d="M421 527h179l-202 -527h-200l-197 528l194 -1q53 -161 67 -211q18 -64 44 -175q24 105 43 170.5t72 215.5z" />
    <glyph glyph-name="w" unicode="w" horiz-adv-x="958" 
d="M378 528l219 -1q7 -29 35 -136q3 -12 15.5 -59.5t18.5 -73.5q12 -54 21 -113q25 130 31 156q13 58 30 118q18 72 28 108h176l-167 -528h-208q-38 142 -55 214q-19 79 -39 177l-99 -390h-212l-170 528l193 -1q6 -23 17.5 -69.5t17.5 -69.5q26 -102 29 -116q13 -59 25 -139
q26 124 41 186q13 52 53 209z" />
    <glyph glyph-name="x" unicode="x" 
d="M180 272l-158 257h211l78 -158l82 158h201l-167 -259l168 -271h-210l-88 168l-93 -167h-203z" />
    <glyph glyph-name="y" unicode="y" 
d="M420 529l183 -1q-41 -104 -123 -314q-56 -145 -69 -178q-9 -22 -50 -116q-24 -49 -38 -66q-23 -29 -68 -52t-110 -23q-41 0 -110 16l15 127q49 -7 62 -7q54 0 82 34q9 13 19 36q-7 17 -128 328q-7 17 -86 216l197 -1q38 -108 72 -219q24 -85 41 -148q37 131 49 172
q20 66 62 196z" />
    <glyph glyph-name="z" unicode="z" horiz-adv-x="521" 
d="M31 149l241 250h-236v130h445v-142l-242 -257h245v-130h-453v149z" />
    <glyph glyph-name="braceleft" unicode="{" horiz-adv-x="354" 
d="M112 414v123q-5 87 15 133q9 20 26 37q21 18 43 26q40 15 158 15v-8q-56 -11 -82 -39q-17 -19 -22 -46t-5 -83v-95q1 -79 -4 -118.5t-25 -65.5q-6 -8 -14 -14.5t-15 -11t-15.5 -8t-13.5 -5t-11 -3.5t-7 -2q20 -6 30 -10.5t23.5 -13.5t24.5 -23q14 -18 20 -44.5t7 -48
t1 -77.5v-107q0 -55 6 -84t24 -47q25 -24 78 -37v-7q-82 0 -124.5 6.5t-69.5 28.5q-23 19 -34.5 50t-13 54t-0.5 59v126q1 18 0 35q0 70 -27 103q-9 12 -20 19q-11 8 -31 15v7q17 4 28 10q19 11 30 28t15 44t4.5 38.5t0.5 40.5z" />
    <glyph glyph-name="bar" unicode="|" horiz-adv-x="229" 
d="M178 -250h-127v998h127v-998z" />
    <glyph glyph-name="braceright" unicode="}" horiz-adv-x="354" 
d="M242 83v-122q3 -92 -12 -128q-11 -25 -31 -43q-19 -18 -45 -28q-36 -12 -154 -12v7q46 9 69 27q2 2 5 4.5t6 4.5l2 2q17 20 22 47.5t5 83.5v95q0 63 2 96q2 52 26 84q6 9 14 16t14.5 11.5t15.5 8.5t13 5.5t11.5 3.5t8.5 2q-25 6 -42 17q-43 24 -56 70q-8 29 -8 130v108
q0 57 -6.5 87t-28.5 48q-21 19 -73 32v8q125 0 167 -19q41 -18 61 -62q13 -29 14 -117v-127q-1 -58 3 -85.5t21 -49.5q16 -21 54 -36v-8q-24 -6 -37 -16q-20 -15 -30 -45.5t-10.5 -46.5t-0.5 -53z" />
    <glyph glyph-name="asciitilde" unicode="~" horiz-adv-x="729" 
d="M362 232l-27 13q-50 23 -73 23q-22 -2 -37 -8q-10 -5 -21.5 -15t-18 -17t-27.5 -31l-55 104q38 52 74 72q39 22 82 22q38 0 104 -31l35 -16q48 -22 77 -22q22 0 47 15.5t36 27t16 18.5l52 -105q-21 -24 -43 -40q-60 -43 -113 -43q-39 0 -108 33z" />
    <glyph glyph-name="exclamdown" unicode="&#xa1;" horiz-adv-x="292" 
d="M53 469h137l22 -467h-184zM38 702h168v-156h-168v156z" />
    <glyph glyph-name="sterling" unicode="&#xa3;" horiz-adv-x="562" 
d="M25 132h98v194h-88v93h88q0 51 2 78.5t14.5 64.5t37.5 68q75 91 224 91q66 0 137 -20l-7 -131q-56 16 -86 16q-61 0 -92 -30.5t-41 -65.5q-6 -24 -6 -71h153v-93h-149v-194h223v-132h-508v132z" />
    <glyph glyph-name="currency" unicode="&#xa4;" horiz-adv-x="667" 
d="M579 187l81 -82l-96 -95l-81 82q-2 -1 -12 -6.5t-14 -7t-14.5 -6.5t-17 -7t-18.5 -5.5t-22.5 -5t-24 -3t-27.5 -1.5q-36 0 -68.5 8.5t-45.5 15t-37 20.5l-81 -82l-95 95l82 82q-10 15 -17 29q-26 50 -26 126q0 12 0.5 23.5t2.5 22t3.5 18.5t5 18t5 14.5t6.5 14t6 12
t7 12.5t6 11l-80 80l95 95l80 -80q59 32 100 39q24 4 52 4q37 0 68 -8t43.5 -14t38.5 -21l81 81l96 -96l-81 -80q15 -27 20.5 -39t13.5 -43.5t8 -67.5q0 -38 -8 -70t-14 -43.5t-21 -39.5zM497 340q0 69 -43 113q-52 52 -121 52q-29 0 -57 -11q-41 -15 -73.5 -53t-32.5 -105
q0 -70 49.5 -116t117.5 -46q54 0 95 32q65 50 65 134z" />
    <glyph glyph-name="brokenbar" unicode="&#xa6;" horiz-adv-x="229" 
d="M51 190h127v-381h-127v381zM51 308v381h127v-381h-127z" />
    <glyph glyph-name="section" unicode="&#xa7;" horiz-adv-x="542" 
d="M458 696l-9 -122q-97 26 -144 26q-52 0 -80 -14q-22 -13 -22 -33q0 -22 29 -41q10 -6 19 -9.5t27 -9t34 -11.5q39 -12 74 -30q20 -6 48 -26q31 -24 50 -50q28 -40 28 -86q0 -29 -11.5 -55t-24 -41t-37.5 -42l8 -6q8 -7 17 -15.5t15 -16.5q26 -31 26 -79q0 -77 -70 -129
q-68 -49 -186 -49q-71 0 -203 31l10 130q102 -40 183 -40q16 0 29 3q12 0 36 12.5t24 35.5q0 30 -26 48q-8 5 -73 30q-36 14 -92 41q-56 31 -76 55q-33 40 -33 93q0 29 13 55t27 40.5t41 37.5q-1 0 -7.5 5t-9.5 7.5t-10.5 8t-12 11t-11 13t-10 15.5t-7.5 17.5t-6 20.5t-2 23
q0 44 26 84q57 84 224 84q78 0 175 -22zM204 389q-32 -38 -32 -68q0 -24 13 -40q23 -30 154 -82q27 38 27 67q0 37 -26 59q-17 14 -71 37q-11 4 -32.5 13t-32.5 14z" />
    <glyph glyph-name="dieresis" unicode="&#xa8;" horiz-adv-x="271" 
d="M-137 716h151v-145h-151v145zM90 716h150v-146h-150v146z" />
    <glyph glyph-name="copyright" unicode="&#xa9;" horiz-adv-x="833" 
d="M429 106h-13q-111 5 -173 69q-68 70 -68 178q0 109 68 179q71 72 182 72q91 0 158 -51q13 -10 37 -34l-87 -84q-50 50 -108 50q-35 0 -64 -15q-63 -33 -63 -114q0 -67 44 -103q34 -28 86 -28q14 0 28 3q34 6 77 43l87 -81q-18 -20 -33 -31q-67 -53 -158 -53zM773 351
q0 -127 -80 -226q-41 -49 -111.5 -88.5t-165.5 -39.5q-136 0 -237 90q-118 103 -118 267q0 44 8 79q36 157 176 233q78 43 173 43q87 0 153 -33.5t105 -74.5q37 -39 67.5 -104t29.5 -146zM741 352q0 105 -62 195q-46 63 -115.5 96.5t-145.5 33.5q-136 0 -230.5 -94.5
t-94.5 -229.5q0 -97 51 -176q45 -68 114 -106q72 -42 158 -42q63 0 124.5 24.5t107.5 70.5q89 90 93 228z" />
    <glyph glyph-name="guillemotleft" unicode="&#xab;" horiz-adv-x="542" 
d="M128 500h149l-107 -204l106 -210h-147l-118 209zM371 500h153l-111 -209l106 -205h-148l-117 208z" />
    <glyph glyph-name="logicalnot" unicode="&#xac;" horiz-adv-x="667" 
d="M539 227h-539v127h667v-354h-128v227z" />
    <glyph glyph-name="registered" unicode="&#xae;" horiz-adv-x="833" 
d="M612 128l-126 1q-6 14 -11 30.5t-6.5 27t-5 31.5t-4.5 30q-9 49 -21 59q-13 11 -59 13h-19v-192h-110v458h164q27 0 40 -1q52 -2 78.5 -13.5t44.5 -34.5q25 -32 25 -74q0 -13 -3 -25.5t-6.5 -21t-10.5 -17t-11.5 -13.5t-13.5 -11t-12.5 -8t-12.5 -7l-9 -4q10 -6 15 -10
q28 -21 34 -71q0 -1 3.5 -20l7 -38t11.5 -44.5t18 -44.5zM360 407h49q38 0 53 3.5t24 20.5q7 11 7 26q0 12 -6 23q-13 22 -58 22h-69v-95zM773 351q0 -129 -85 -229q-43 -51 -102 -81.5t-96.5 -37t-72.5 -6.5q-122 0 -218 73q-138 108 -138 284q0 130 81 228
q109 127 276 127q85 0 160 -37t126 -106q71 -95 69 -215zM741 352q0 109 -63 195q-15 20 -34.5 39t-51.5 41.5t-77.5 36t-96.5 13.5q-108 0 -192 -62q-20 -15 -39.5 -34.5t-42.5 -52t-37 -78t-14 -97.5q0 -65 24 -123q37 -91 119.5 -146t181.5 -55q54 0 109 19
q97 34 155 117.5t59 186.5z" />
    <glyph glyph-name="degree" unicode="&#xb0;" horiz-adv-x="354" 
d="M177 745q39 0 71 -15q47 -20 74 -63t27 -94q0 -41 -15 -71q-20 -46 -63 -74t-94 -28q-63 0 -112 42q-60 51 -60 131q0 72 50 122t122 50zM177 630q-23 0 -39 -16t-16 -39t16.5 -39.5t39.5 -16.5t39 16.5t16 39.5t-16.5 39t-39.5 16z" />
    <glyph glyph-name="plusminus" unicode="&#xb1;" horiz-adv-x="500" 
d="M469 0h-436v127h436v-127zM315 184h-127v156h-155v127h155v154h127v-154h154v-127h-154v-156z" />
    <glyph glyph-name="acute" unicode="&#xb4;" horiz-adv-x="271" 
d="M96 715h203l-195 -146h-115z" />
    <glyph glyph-name="mu" unicode="&#xb5;" horiz-adv-x="562" 
d="M501 144l35 2q15 -42 15 -73q0 -53 -34 -73q-17 -11 -38 -11q-15 0 -33 7q-42 16 -55 68q-55 -79 -149 -79q-65 0 -107 49q-6 -82 25 -146q10 -20 24.5 -41.5t21 -34.5t6.5 -27q0 -10 -4 -20q-15 -27 -46 -27q-28 0 -50 22q-42 48 -42 193q0 102 12 174q-23 115 -23 248
q0 56 25 80q15 15 35 15q34 0 51 -46q3 -21 3 -32q0 -48 -31 -271q32 -75 90 -75q29 0 55 23q34 29 48 82t14 148q0 2 -0.5 31.5t0 45t3.5 38t10 33.5q14 23 43 23q19 0 36 -13q26 -21 26 -91q0 -40 -5 -88q-10 -103 -45 -170q11 -48 46 -48q39 0 39 61q0 15 -1 23z" />
    <glyph glyph-name="paragraph" unicode="&#xb6;" horiz-adv-x="667" 
d="M558 706v-78h-36v-795h-84v795h-117v-795h-85v459l-8 2q-8 3 -17.5 6t-17.5 6q-62 28 -91 88q-8 15 -14 41q-6 27 -6 57q0 83 46 139q33 42 82 60q34 14 98 15h250z" />
    <glyph glyph-name="periodcentered" unicode="&#xb7;" horiz-adv-x="187" 
d="M183 286q0 -17 -8 -34q-12 -23 -34.5 -36.5t-46.5 -13.5q-36 0 -63 26t-27 62q0 16 7 33q26 58 83 58q25 0 43 -10q28 -14 37.5 -40.5t8.5 -44.5z" />
    <glyph glyph-name="cedilla" unicode="&#xb8;" horiz-adv-x="271" 
d="M5 -114l-19 18l84 137h56l-69 -110q1 0 18.5 1.5t25.5 1.5q47 0 75 -27q22 -20 22 -48q0 -24 -16 -45q-33 -44 -118 -44q-44 0 -135 20l19 53q61 -26 98 -26q20 0 35.5 8.5t15.5 25.5t-14 28t-41 11q-9 0 -37 -4z" />
    <glyph glyph-name="guillemotright" unicode="&#xbb;" horiz-adv-x="542" 
d="M125 296l-109 205h149l118 -207l-118 -205h-149zM367 294l-107 207h148l118 -209l-117 -204h-149z" />
    <glyph glyph-name="questiondown" unicode="&#xbf;" horiz-adv-x="521" 
d="M179 482h147q-2 -57 -17 -88q-13 -29 -56 -79q-20 -23 -29 -34.5t-21 -35t-12 -42.5q0 -28 18 -48q31 -35 103 -35q16 0 30.5 1t28 3.5t23 4.5t21.5 6t17 5.5t17 6.5t14 6l4 -138q-1 0 -23 -5.5t-35 -8.5t-37 -7t-48.5 -6t-50.5 -2q-29 0 -57 3q-110 11 -164 65
q-43 44 -43 111q0 34 15.5 68.5t31.5 55t46 54.5q60 68 70 97q4 9 7 42zM170 712h168v-153h-168v153z" />
    <glyph glyph-name="Agrave" unicode="&#xc0;" horiz-adv-x="771" 
d="M268 703h231l266 -703h-201l-53 144h-267l-54 -143h-188zM380 556l-93 -282h180zM351 887l105 -138h-126l-195 138h216z" />
    <glyph glyph-name="Aacute" unicode="&#xc1;" horiz-adv-x="771" 
d="M268 703h231l266 -703h-201l-53 144h-267l-54 -143h-188zM380 556l-93 -282h180zM426 891h228l-208 -142h-126z" />
    <glyph glyph-name="Acircumflex" unicode="&#xc2;" horiz-adv-x="771" 
d="M268 703h231l266 -703h-201l-53 144h-267l-54 -143h-188zM380 556l-93 -282h180zM295 892h185l105 -141h-124l-76 80l-75 -82h-127z" />
    <glyph glyph-name="Atilde" unicode="&#xc3;" horiz-adv-x="771" 
d="M268 703h231l266 -703h-201l-53 144h-267l-54 -143h-188zM380 556l-93 -282h180zM513 893l67 -1q0 -24 -3 -35q-6 -28 -25 -54.5t-43 -38.5q-21 -11 -49 -11q-32 0 -65 15l-19 9.5t-21.5 10t-18 5.5t-22.5 3q-23 0 -34.5 -9t-25.5 -31h-68q10 61 31 91q39 48 98 48
q30 0 67 -15q52 -23 76 -23q20 0 31 8t24 28z" />
    <glyph glyph-name="Adieresis" unicode="&#xc4;" horiz-adv-x="771" 
d="M268 703h231l266 -703h-201l-53 144h-267l-54 -143h-188zM380 556l-93 -282h180zM177 890h165v-142h-165v142zM417 889h165v-141h-165v141z" />
    <glyph glyph-name="Aring" unicode="&#xc5;" horiz-adv-x="771" 
d="M267 703h230q57 -146 109 -282q23 -62 76 -204t82 -217h-200l-54 144h-265l-55 -143h-188zM379 560l-92 -286h180zM275 849q4 43 34.5 71t74.5 28q45 0 77 -31.5t32 -77.5q0 -21 -8 -40q-13 -31 -40 -49.5t-61 -18.5q-24 0 -48 11q-31 14 -47 42.5t-14 64.5zM337 853
q-3 -12 0 -20q3 -18 16 -30t29 -12q19 0 34 14t15 32q0 12 -4 21q-14 29 -41 29q-16 0 -30.5 -9.5t-18.5 -24.5z" />
    <glyph glyph-name="AE" unicode="&#xc6;" horiz-adv-x="1000" 
d="M370 704h577v-134h-272l9 -138h249v-136h-237l13 -159h251v-136h-425l-13 150h-245l-73 -149h-203zM341 282h173l-27 310q-35 -82 -63 -142q-13 -28 -83 -168z" />
    <glyph glyph-name="Ccedilla" unicode="&#xc7;" horiz-adv-x="688" 
d="M447 -15l-34 -54q30 2 44 2q27 0 42 -6q24 -8 39.5 -26.5t15.5 -41.5t-14 -42q-33 -47 -121 -47q-45 0 -134 20l18 53q1 0 13 -4.5t24.5 -9t30 -8.5t31.5 -4q18 0 34.5 8.5t16.5 25.5t-14.5 28t-40.5 11q-10 0 -37 -4l-19 18l52 85q-53 7 -82 12.5t-68 21t-72 40.5
q-135 106 -135 293q0 126 60 213q46 70 135 112q86 40 208 40q58 0 99 -8t111 -29l-15 -149q-39 16 -59 23.5t-52.5 14.5t-62.5 7q-103 0 -169 -66q-58 -61 -58 -158q0 -63 26 -112q24 -43 76.5 -79t135.5 -36q82 0 173 41l10 -157q-92 -29 -173 -29q-23 0 -35 1z" />
    <glyph glyph-name="Egrave" unicode="&#xc8;" 
d="M59 701h496v-135h-308v-139h289v-136h-289v-156h319v-135h-507v701zM268 887l105 -138h-126l-195 138h216z" />
    <glyph glyph-name="Eacute" unicode="&#xc9;" 
d="M59 701h496v-135h-308v-139h289v-136h-289v-156h319v-135h-507v701zM343 891h228l-208 -142h-126z" />
    <glyph glyph-name="Ecircumflex" unicode="&#xca;" 
d="M59 701h496v-135h-308v-139h289v-136h-289v-156h319v-135h-507v701zM212 892h185l105 -141h-125l-76 80l-75 -82h-126z" />
    <glyph glyph-name="Edieresis" unicode="&#xcb;" 
d="M59 701h496v-135h-308v-139h289v-136h-289v-156h319v-135h-507v701zM98 893h166v-142h-166v142zM338 891h166v-141h-166v141z" />
    <glyph glyph-name="Igrave" unicode="&#xcc;" horiz-adv-x="313" 
d="M60 701h192v-700h-192v700zM122 887l105 -138h-126l-195 138h216z" />
    <glyph glyph-name="Iacute" unicode="&#xcd;" horiz-adv-x="313" 
d="M60 701h192v-700h-192v700zM197 891h228l-208 -142h-126z" />
    <glyph glyph-name="Icircumflex" unicode="&#xce;" horiz-adv-x="313" 
d="M60 701h192v-700h-192v700zM66 892h185l105 -141h-125l-76 80l-75 -82h-126z" />
    <glyph glyph-name="Idieresis" unicode="&#xcf;" horiz-adv-x="313" 
d="M60 701h192v-700h-192v700zM-48 893h166v-142h-166v142zM192 891h166v-141h-166v141z" />
    <glyph glyph-name="Ntilde" unicode="&#xd1;" horiz-adv-x="792" 
d="M59 701l231 -1q67 -121 124 -220q9 -17 26.5 -47t31.5 -55t26 -48q13 -23 58 -119q-8 183 -8 219q-1 135 0 271h176v-701h-235q-46 86 -104 188q-77 134 -102 185q-13 25 -57 121q7 -165 8 -297v-196h-175v700zM524 893l66 -1q0 -24 -3 -35q-6 -28 -25 -54.5t-43 -38.5
q-21 -11 -49 -11q-32 0 -64 15q-5 2 -16 7.5t-17 8t-15 6t-17 5t-17 1.5q-23 0 -34.5 -9t-24.5 -31h-69q10 61 31 91q39 48 99 48q30 0 67 -15q52 -23 76 -23q19 0 30 8t25 28z" />
    <glyph glyph-name="Ograve" unicode="&#xd2;" horiz-adv-x="792" 
d="M37 358q0 140 67 231q41 54 103 88q85 44 185 44q98 -1 166.5 -33t106.5 -75q34 -37 60 -104t26 -156q0 -157 -79 -253q-48 -58 -122 -88.5t-154 -30.5q-150 0 -246 87q-57 52 -85.5 129t-27.5 161zM235 366q0 -92 25 -149q44 -96 136 -96q77 0 124 74q35 56 35 150
q0 106 -37 164q-14 21 -31 38q-46 36 -94 36q-32 0 -63 -16q-85 -45 -95 -201zM362 887l105 -138h-126l-196 138h217z" />
    <glyph glyph-name="Oacute" unicode="&#xd3;" horiz-adv-x="792" 
d="M37 358q0 140 67 231q41 54 103 88q85 44 185 44q98 -1 166.5 -33t106.5 -75q34 -37 60 -104t26 -156q0 -157 -79 -253q-48 -58 -122 -88.5t-154 -30.5q-150 0 -246 87q-57 52 -85.5 129t-27.5 161zM235 366q0 -92 25 -149q44 -96 136 -96q77 0 124 74q35 56 35 150
q0 106 -37 164q-14 21 -31 38q-46 36 -94 36q-32 0 -63 -16q-85 -45 -95 -201zM437 891h228l-208 -142h-126z" />
    <glyph glyph-name="Ocircumflex" unicode="&#xd4;" horiz-adv-x="792" 
d="M37 358q0 140 67 231q41 54 103 88q85 44 185 44q98 -1 166.5 -33t106.5 -75q34 -37 60 -104t26 -156q0 -157 -79 -253q-48 -58 -122 -88.5t-154 -30.5q-150 0 -246 87q-57 52 -85.5 129t-27.5 161zM235 366q0 -92 25 -149q44 -96 136 -96q77 0 124 74q35 56 35 150
q0 106 -37 164q-14 21 -31 38q-46 36 -94 36q-32 0 -63 -16q-85 -45 -95 -201zM306 892h184l105 -141h-124l-76 80l-75 -82h-126z" />
    <glyph glyph-name="Otilde" unicode="&#xd5;" horiz-adv-x="792" 
d="M37 358q0 140 67 231q41 54 103 88q85 44 185 44q98 -1 166.5 -33t106.5 -75q34 -37 60 -104t26 -156q0 -157 -79 -253q-48 -58 -122 -88.5t-154 -30.5q-150 0 -246 87q-57 52 -85.5 129t-27.5 161zM235 366q0 -92 25 -149q44 -96 136 -96q77 0 124 74q35 56 35 150
q0 106 -37 164q-14 21 -31 38q-46 36 -94 36q-32 0 -63 -16q-85 -45 -95 -201zM524 893l66 -1q0 -24 -3 -35q-6 -28 -25 -54.5t-43 -38.5q-21 -11 -49 -11q-32 0 -64 15q-5 2 -16 7.5t-17 8t-15 6t-17 5t-17 1.5q-23 0 -34.5 -9t-24.5 -31h-69q10 61 31 91q39 48 99 48
q30 0 67 -15q52 -23 76 -23q19 0 30 8t25 28z" />
    <glyph glyph-name="Odieresis" unicode="&#xd6;" horiz-adv-x="792" 
d="M37 358q0 140 67 231q41 54 103 88q85 44 185 44q98 -1 166.5 -33t106.5 -75q34 -37 60 -104t26 -156q0 -157 -79 -253q-48 -58 -122 -88.5t-154 -30.5q-150 0 -246 87q-57 52 -85.5 129t-27.5 161zM235 366q0 -92 25 -149q44 -96 136 -96q77 0 124 74q35 56 35 150
q0 106 -37 164q-14 21 -31 38q-46 36 -94 36q-32 0 -63 -16q-85 -45 -95 -201zM190 893h166v-142h-166v142zM430 891h165v-141h-165v141z" />
    <glyph glyph-name="multiply" unicode="&#xd7;" horiz-adv-x="500" 
d="M464 167l-90 -90l-124 123l-124 -123l-90 90l124 124l-124 125l90 89l124 -124l124 124l90 -89l-123 -125z" />
    <glyph glyph-name="Oslash" unicode="&#xd8;" horiz-adv-x="792" 
d="M625 658l71 73l48 -46l-71 -76q19 -23 31 -45q48 -85 48 -209q0 -174 -98 -272q-96 -96 -260 -96q-102 0 -183 41q-17 8 -60 36l-77 -85l-52 48l82 86q-40 68 -52 108q-17 55 -17 127q0 80 25 155.5t75 125.5q37 37 102.5 66t154.5 29q54 0 107 -14t70 -22.5t56 -29.5z
M240 256l266 279q-14 16 -22 24t-31.5 18.5t-51.5 10.5q-39 0 -73 -17q-28 -15 -49 -41.5t-30 -51t-14.5 -55.5t-6 -43t-0.5 -26q0 -42 12 -98zM543 476l-272 -288q15 -21 27 -32q36 -34 93 -34q42 0 76 20q40 24 66.5 77.5t26.5 138.5q0 45 -17 118z" />
    <glyph glyph-name="Ugrave" unicode="&#xd9;" horiz-adv-x="729" 
d="M59 703h189v-437q2 -65 25 -100q31 -45 90 -45t90 43q14 20 20 42.5t7 68.5v429h189v-452q-7 -81 -28 -125q-36 -74 -113 -109t-167 -35q-48 0 -87 9q-138 30 -188 132q-18 35 -27 111v468zM330 887l106 -138h-126l-196 138h216z" />
    <glyph glyph-name="Uacute" unicode="&#xda;" horiz-adv-x="729" 
d="M59 703h189v-437q2 -65 25 -100q31 -45 90 -45t90 43q14 20 20 42.5t7 68.5v429h189v-452q-7 -81 -28 -125q-36 -74 -113 -109t-167 -35q-48 0 -87 9q-138 30 -188 132q-18 35 -27 111v468zM406 891h227l-207 -142h-126z" />
    <glyph glyph-name="Ucircumflex" unicode="&#xdb;" horiz-adv-x="729" 
d="M59 703h189v-437q2 -65 25 -100q31 -45 90 -45t90 43q14 20 20 42.5t7 68.5v429h189v-452q-7 -81 -28 -125q-36 -74 -113 -109t-167 -35q-48 0 -87 9q-138 30 -188 132q-18 35 -27 111v468zM275 892h184l105 -141h-124l-76 80l-75 -82h-127z" />
    <glyph glyph-name="Udieresis" unicode="&#xdc;" horiz-adv-x="729" 
d="M59 703h189v-437q2 -65 25 -100q31 -45 90 -45t90 43q14 20 20 42.5t7 68.5v429h189v-452q-7 -81 -28 -125q-36 -74 -113 -109t-167 -35q-48 0 -87 9q-138 30 -188 132q-18 35 -27 111v468zM160 890h165v-140h-165v140zM400 890h165v-139h-165v139z" />
    <glyph glyph-name="germandbls" unicode="&#xdf;" horiz-adv-x="667" 
d="M285 3v129q31 -5 55 -5q46 0 75 26t29 73q0 30 -14 55q-17 30 -47 39t-76 9l1 126q34 3 50 7q9 3 19 8.5t22 15.5t19.5 27.5t7.5 39.5q0 23 -9 42q-21 51 -80 51q-25 0 -48 -13q-34 -20 -44.5 -56.5t-11.5 -90.5v-484h-179v526q2 32 5 48q9 67 51 113q70 77 233 77
q115 0 185 -47q80 -54 80 -150q0 -38 -15 -75q-15 -38 -38.5 -56.5t-68.5 -37.5q1 0 9.5 -3t17.5 -6.5t21 -9t21 -10.5q78 -45 78 -157q0 -46 -14 -84q-48 -134 -231 -134q-44 0 -103 7z" />
    <glyph glyph-name="agrave" unicode="&#xe0;" 
d="M96 387v120q128 34 200 34q116 0 186 -54q36 -27 51 -65q14 -32 18 -109v-313h-158v81q-29 -36 -41 -47q-52 -48 -141 -48q-41 0 -77 14q-49 19 -80 63.5t-31 98.5q0 47 21.5 78.5t45.5 46.5q50 34 181 43h109q0 23 -5 38q-13 30 -47 44.5t-71 14.5q-57 0 -161 -40z
M381 235q-66 3 -68 3q-62 0 -93 -26q-23 -20 -23 -49q0 -31 22 -49t52 -18q50 0 83 43q16 20 21 41t6 55zM258 711l108 -144h-120l-189 144h201z" />
    <glyph glyph-name="aacute" unicode="&#xe1;" 
d="M96 387v120q128 34 200 34q116 0 186 -54q36 -27 51 -65q14 -32 18 -109v-313h-158v81q-29 -36 -41 -47q-52 -48 -141 -48q-41 0 -77 14q-49 19 -80 63.5t-31 98.5q0 47 21.5 78.5t45.5 46.5q50 34 181 43h109q0 23 -5 38q-13 30 -47 44.5t-71 14.5q-57 0 -161 -40z
M381 235q-66 3 -68 3q-62 0 -93 -26q-23 -20 -23 -49q0 -31 22 -49t52 -18q50 0 83 43q16 20 21 41t6 55zM346 715h203l-195 -146h-115z" />
    <glyph glyph-name="acircumflex" unicode="&#xe2;" 
d="M96 387v120q128 34 200 34q116 0 186 -54q36 -27 51 -65q14 -32 18 -109v-313h-158v81q-29 -36 -41 -47q-52 -48 -141 -48q-41 0 -77 14q-49 19 -80 63.5t-31 98.5q0 47 21.5 78.5t45.5 46.5q50 34 181 43h109q0 23 -5 38q-13 30 -47 44.5t-71 14.5q-57 0 -161 -40z
M381 235q-66 3 -68 3q-62 0 -93 -26q-23 -20 -23 -49q0 -31 22 -49t52 -18q50 0 83 43q16 20 21 41t6 55zM227 716h153l115 -148h-112l-82 86l-82 -84h-116z" />
    <glyph glyph-name="atilde" unicode="&#xe3;" 
d="M96 387v120q128 34 200 34q116 0 186 -54q36 -27 51 -65q14 -32 18 -109v-313h-158v81q-29 -36 -41 -47q-52 -48 -141 -48q-41 0 -77 14q-49 19 -80 63.5t-31 98.5q0 47 21.5 78.5t45.5 46.5q50 34 181 43h109q0 23 -5 38q-13 30 -47 44.5t-71 14.5q-57 0 -161 -40z
M381 235q-66 3 -68 3q-62 0 -93 -26q-23 -20 -23 -49q0 -31 22 -49t52 -18q50 0 83 43q16 20 21 41t6 55zM432 713h69q-5 -41 -11 -57q-32 -84 -113 -84q-34 1 -68 16q-59 25 -81 25q-21 0 -32 -8t-23 -29h-70q6 41 13 62q7 16 18 31t37.5 30.5t59.5 15.5q36 0 78 -18
q5 -2 15.5 -6.5l17.5 -7.5t16.5 -5.5t17.5 -2.5q21 1 32 9.5t24 28.5z" />
    <glyph glyph-name="adieresis" unicode="&#xe4;" 
d="M95 389v117q108 34 188 34q124 0 195 -52q34 -27 49 -57q19 -35 23 -118v-312h-158v81q-29 -38 -44 -51q-50 -44 -136 -44q-38 0 -74 12q-51 18 -83 62.5t-32 99.5q0 53 32 94q25 31 67.5 48t71 20.5t81.5 7.5h104q0 25 -5 38q-8 21 -26 34.5t-39.5 18.5t-32.5 6t-20 1
q-58 -1 -161 -40zM114 739h149v-142h-149v142zM382 235q-33 3 -66 3q-68 0 -99 -27q-21 -20 -21 -49t22 -47.5t52 -18.5q48 0 80 39q27 31 32 100zM339 739h150v-141h-150v141z" />
    <glyph glyph-name="aring" unicode="&#xe5;" 
d="M94 389l1 118q117 35 193 35q125 0 194 -54q30 -23 47 -55q18 -36 22 -117v-313h-156l-4 77q-29 -35 -44 -48q-53 -43 -137 -43q-57 0 -99 24q-41 22 -65.5 63t-24.5 88q0 80 71 127q51 32 184 41l106 1q-6 40 -17 55q-27 41 -110 41q-57 0 -161 -40zM191 705q2 17 14 42
q13 22 34 35t35.5 16t26.5 3q46 0 77 -31.5t31 -76.5q0 -21 -6 -39q-13 -33 -40.5 -51t-62.5 -18q-24 0 -46 10q-31 14 -48.5 45t-14.5 65zM382 237q-90 5 -120 -3q-29 -7 -47.5 -24.5t-18.5 -44.5q0 -31 22.5 -48.5t53.5 -17.5q35 0 63 23t39 57q6 19 8 58zM254 709
q-3 -10 -2 -19q3 -19 16 -32t30 -13q20 1 35 15t15 32q0 20 -13.5 35t-32.5 15q-15 0 -29.5 -9.5t-18.5 -23.5z" />
    <glyph glyph-name="ae" unicode="&#xe6;" horiz-adv-x="958" 
d="M89 384v119q36 16 61 22q71 19 153 19q49 0 83 -11.5t46.5 -22.5t37.5 -37q26 24 48 39q54 33 145 33q36 0 75 -8q93 -18 141 -90q21 -33 32.5 -77t14 -73.5t3.5 -83.5h-375q12 -41 25 -57q37 -50 132 -50q65 0 161 42v-128q-37 -12 -54 -16.5t-54.5 -9t-88.5 -4.5
q-111 0 -165 40q-12 9 -48 47q-21 -23 -34 -34q-60 -53 -173 -53q-111 0 -170 43q-65 47 -65 129q0 99 102 144q43 18 100 23.5t160 3.5q0 27 -15 52q-27 43 -106 43q-81 0 -172 -44zM387 239q-87 3 -119 -3q-71 -18 -71 -73q0 -22 10 -38q22 -34 74 -34q59 0 88 51
q20 32 18 97zM552 317l214 1q-6 41 -15.5 64t-37.5 39q-24 13 -53 13q-26 0 -54 -14q-45 -27 -54 -103z" />
    <glyph glyph-name="ccedilla" unicode="&#xe7;" horiz-adv-x="500" 
d="M343 -12l-36 -57q30 2 44 2q23 0 40 -5q24 -7 40.5 -26t16.5 -43q0 -26 -18 -47q-35 -42 -116 -42q-44 0 -135 20l19 53q67 -26 99 -26q18 0 34 8.5t16 26.5q0 16 -14 27t-40 11q-10 0 -38 -4l-19 18l53 86q-76 8 -115 25q-74 31 -112.5 99t-38.5 153q0 111 60 182
q40 47 104.5 71.5t131.5 24.5q58 -1 157 -31l-11 -131q-63 26 -102 26q-30 0 -55 -9q-35 -12 -64.5 -43t-29.5 -89q0 -37 14 -68q18 -38 57.5 -58.5t86.5 -20.5q43 0 107 25v-134q-72 -23 -136 -24z" />
    <glyph glyph-name="egrave" unicode="&#xe8;" 
d="M574 210l-374 -1q13 -43 22 -56q13 -20 46 -35t81 -15q59 0 174 41l3 -124q-79 -28 -136 -33q-27 -2 -57 -2q-188 0 -264 122q-44 70 -44 165q0 108 61 181q75 91 220 91q146 0 213 -102q29 -41 42 -95q11 -49 13 -137zM198 315h212q-6 33 -6 35q-9 44 -45 66
q-25 15 -53 15q-29 0 -53 -14q-27 -15 -37 -37.5t-18 -64.5zM258 711l108 -144h-120l-189 144h201z" />
    <glyph glyph-name="eacute" unicode="&#xe9;" 
d="M574 210l-374 -1q13 -43 22 -56q13 -20 46 -35t81 -15q59 0 174 41l3 -124q-79 -28 -136 -33q-27 -2 -57 -2q-188 0 -264 122q-44 70 -44 165q0 108 61 181q75 91 220 91q146 0 213 -102q29 -41 42 -95q11 -49 13 -137zM198 315h212q-6 33 -6 35q-9 44 -45 66
q-25 15 -53 15q-29 0 -53 -14q-27 -15 -37 -37.5t-18 -64.5zM346 715h203l-195 -146h-115z" />
    <glyph glyph-name="ecircumflex" unicode="&#xea;" 
d="M574 210l-374 -1q13 -43 22 -56q13 -20 46 -35t81 -15q59 0 174 41l3 -124q-79 -28 -136 -33q-27 -2 -57 -2q-188 0 -264 122q-44 70 -44 165q0 108 61 181q75 91 220 91q146 0 213 -102q29 -41 42 -95q11 -49 13 -137zM198 315h212q-6 33 -6 35q-9 44 -45 66
q-25 15 -53 15q-29 0 -53 -14q-27 -15 -37 -37.5t-18 -64.5zM227 716h153l115 -148h-112l-82 86l-82 -84h-116z" />
    <glyph glyph-name="edieresis" unicode="&#xeb;" 
d="M574 210l-374 -1q13 -43 22 -56q13 -20 46 -35t81 -15q59 0 174 41l3 -124q-79 -28 -136 -33q-27 -2 -57 -2q-188 0 -264 122q-44 70 -44 165q0 108 61 181q75 91 220 91q146 0 213 -102q29 -41 42 -95q11 -49 13 -137zM198 315h212q-6 33 -6 35q-9 44 -45 66
q-25 15 -53 15q-29 0 -53 -14q-27 -15 -37 -37.5t-18 -64.5zM113 716h151v-145h-151v145zM340 716h150v-146h-150v146z" />
    <glyph glyph-name="igrave" unicode="&#xec;" horiz-adv-x="292" 
d="M54 528h181v-527h-181v527zM102 711l107 -144h-119l-190 144h202z" />
    <glyph glyph-name="iacute" unicode="&#xed;" horiz-adv-x="292" 
d="M54 528h181v-527h-181v527zM190 715h203l-195 -146h-115z" />
    <glyph glyph-name="icircumflex" unicode="&#xee;" horiz-adv-x="292" 
d="M54 528h181v-527h-181v527zM71 716h153l115 -148h-112l-82 86l-82 -84h-116z" />
    <glyph glyph-name="idieresis" unicode="&#xef;" horiz-adv-x="292" 
d="M54 528h181v-527h-181v527zM-43 716h151v-145h-151v145zM184 716h150v-146h-150v146z" />
    <glyph glyph-name="ntilde" unicode="&#xf1;" horiz-adv-x="667" 
d="M55 525h167l1 -90q11 19 32 41q61 64 156 64q42 0 74 -12q45 -15 71 -44.5t36 -56.5q13 -32 18 -105v-323h-183v274q0 25 -1.5 39.5t-9 33t-22.5 31.5q-21 19 -50 19q-30 0 -59 -22q-8 -6 -14.5 -13t-11 -15t-8.5 -15t-6 -15.5t-3.5 -14.5t-2.5 -14t-1 -12t-0.5 -10.5
t-0.5 -7.5v-257h-182v525zM463 713h69q-5 -41 -11 -57q-6 -17 -16 -33.5t-36 -33.5t-60 -17q-31 1 -69 16q-59 25 -81 25q-21 0 -32 -8t-23 -29h-69q6 45 13 62q10 27 38 52t76 25q36 0 78 -18q4 -2 20 -9t27 -10t21 -3q20 1 31 9.5t24 28.5z" />
    <glyph glyph-name="ograve" unicode="&#xf2;" horiz-adv-x="667" 
d="M27 268q0 55 17 100q25 72 93 124t194 53q139 0 221 -71q83 -71 83 -204q0 -120 -65 -192q-32 -37 -91.5 -64t-145.5 -27q-135 0 -218 71q-88 75 -88 210zM213 272q-4 -90 51 -136q29 -25 67 -25q28 0 52 13q67 39 66 141q0 52 -20 92q-33 62 -93 62q-30 0 -56 -14
q-62 -32 -67 -133zM289 711l108 -144h-120l-189 144h201z" />
    <glyph glyph-name="oacute" unicode="&#xf3;" horiz-adv-x="667" 
d="M27 268q0 55 17 100q25 72 93 124t194 53q139 0 221 -71q83 -71 83 -204q0 -120 -65 -192q-32 -37 -91.5 -64t-145.5 -27q-135 0 -218 71q-88 75 -88 210zM213 272q-4 -90 51 -136q29 -25 67 -25q28 0 52 13q67 39 66 141q0 52 -20 92q-33 62 -93 62q-30 0 -56 -14
q-62 -32 -67 -133zM378 715h203l-196 -146h-114z" />
    <glyph glyph-name="ocircumflex" unicode="&#xf4;" horiz-adv-x="667" 
d="M27 268q0 55 17 100q25 72 93 124t194 53q139 0 221 -71q83 -71 83 -204q0 -120 -65 -192q-32 -37 -91.5 -64t-145.5 -27q-135 0 -218 71q-88 75 -88 210zM213 272q-4 -90 51 -136q29 -25 67 -25q28 0 52 13q67 39 66 141q0 52 -20 92q-33 62 -93 62q-30 0 -56 -14
q-62 -32 -67 -133zM258 716h153l115 -148h-112l-82 86l-81 -84h-116z" />
    <glyph glyph-name="otilde" unicode="&#xf5;" horiz-adv-x="667" 
d="M27 268q0 55 17 100q25 72 93 124t194 53q139 0 221 -71q83 -71 83 -204q0 -120 -65 -192q-32 -37 -91.5 -64t-145.5 -27q-135 0 -218 71q-88 75 -88 210zM213 272q-4 -90 51 -136q29 -25 67 -25q28 0 52 13q67 39 66 141q0 52 -20 92q-33 62 -93 62q-30 0 -56 -14
q-62 -32 -67 -133zM463 713h69q-5 -41 -11 -57q-6 -17 -16 -33.5t-36 -33.5t-60 -17q-31 1 -69 16q-59 25 -81 25q-21 0 -32 -8t-23 -29h-69q6 45 13 62q10 27 38 52t76 25q36 0 78 -18q4 -2 20 -9t27 -10t21 -3q20 1 31 9.5t24 28.5z" />
    <glyph glyph-name="odieresis" unicode="&#xf6;" horiz-adv-x="667" 
d="M26 274q3 110 69 182q42 45 106 67t131 22q89 0 151 -29t94 -68q35 -43 49 -104q8 -35 8 -75q0 -131 -78 -204q-83 -78 -219 -78q-72 0 -136 22q-56 20 -94.5 56t-54.5 77.5t-21 72t-5 59.5zM145 742h149v-143h-149v143zM212 282q-5 -97 51 -146q29 -26 68 -26
q43 0 75 32q43 43 43 126q0 44 -12 75q-13 35 -41 56t-63 21q-37 0 -65.5 -21.5t-43.5 -56.5q-10 -25 -12 -60zM371 742h149v-143h-149v143z" />
    <glyph glyph-name="divide" unicode="&#xf7;" horiz-adv-x="500" 
d="M331 108q-2 -33 -24.5 -55t-55.5 -22t-57 22.5t-24 55.5q0 35 24 58.5t58 23.5q17 0 31 -6q23 -10 36 -32t12 -45zM500 227h-499v126h499v-126zM331 468q0 -17 -6 -31q-21 -48 -76 -48q-15 0 -26 5q-19 6 -36 25t-17 49q0 33 23 57q25 25 57 25q34 0 57.5 -23.5
t23.5 -58.5z" />
    <glyph glyph-name="oslash" unicode="&#xf8;" horiz-adv-x="667" 
d="M513 503l54 55l43 -40l-50 -51q1 -1 8 -10t17 -21.5t16 -21.5q37 -59 37 -145q0 -117 -68 -189q-33 -35 -94 -62t-145 -27q-47 0 -85 8.5t-55.5 16.5t-46.5 25l-65 -67l-42 40l60 60q-25 33 -35 49q-37 63 -37 143q0 56 19 109q18 46 50 80t64 50.5t71 26t60.5 11.5
t42.5 2q43 0 81.5 -8t54 -14t45.5 -20zM220 200l190 194q-8 9 -19 16q-26 19 -61 19q-20 0 -40 -7q-43 -15 -63 -58.5t-20 -97.5q0 -30 13 -66zM442 346l-195 -200q40 -40 86 -40q48 0 80 30q44 44 44 127q0 38 -15 83z" />
    <glyph glyph-name="ugrave" unicode="&#xf9;" horiz-adv-x="667" 
d="M234 528v-273q1 -28 2.5 -42.5t11 -33t27.5 -29.5q23 -15 48 -15q47 0 80 49q20 31 24 107v237h182v-528h-169v92q-36 -45 -41 -50q-57 -53 -155 -53q-34 0 -60 7q-38 10 -69.5 39.5t-45.5 67.5q-11 31 -17 103v322h182zM289 711l108 -144h-120l-189 144h201z" />
    <glyph glyph-name="uacute" unicode="&#xfa;" horiz-adv-x="667" 
d="M234 528v-273q1 -28 2.5 -42.5t11 -33t27.5 -29.5q23 -15 48 -15q47 0 80 49q20 31 24 107v237h182v-528h-169v92q-36 -45 -41 -50q-57 -53 -155 -53q-34 0 -60 7q-38 10 -69.5 39.5t-45.5 67.5q-11 31 -17 103v322h182zM378 715h203l-196 -146h-114z" />
    <glyph glyph-name="ucircumflex" unicode="&#xfb;" horiz-adv-x="667" 
d="M234 528v-273q1 -28 2.5 -42.5t11 -33t27.5 -29.5q23 -15 48 -15q47 0 80 49q20 31 24 107v237h182v-528h-169v92q-36 -45 -41 -50q-57 -53 -155 -53q-34 0 -60 7q-38 10 -69.5 39.5t-45.5 67.5q-11 31 -17 103v322h182zM258 716h153l115 -148h-112l-82 86l-81 -84h-116z
" />
    <glyph glyph-name="udieresis" unicode="&#xfc;" horiz-adv-x="667" 
d="M52 527h181v-273q1 -25 2 -38.5t9 -31.5t22 -30q21 -19 50 -19q48 0 84 48q25 36 27 113v231h181v-526h-169v91q-18 -25 -37 -44q-59 -57 -161 -57q-32 0 -56 6q-37 11 -67.5 36.5t-45.5 59.5q-13 30 -20 105v329zM144 739h148v-144h-148v144zM369 740h150v-144h-150v144
z" />
    <glyph glyph-name="ydieresis" unicode="&#xff;" 
d="M420 529l183 -1q-41 -104 -123 -314q-56 -145 -69 -178q-9 -22 -50 -116q-24 -49 -38 -66q-23 -29 -68 -52t-110 -23q-41 0 -110 16l15 127q49 -7 62 -7q54 0 82 34q9 13 19 36q-7 17 -128 328q-7 17 -86 216l197 -1q38 -108 72 -219q24 -85 41 -148q37 131 49 172
q20 66 62 196zM124 716h150v-145h-150v145zM350 716h150v-146h-150v146z" />
    <glyph glyph-name="dotlessi" unicode="&#x131;" horiz-adv-x="292" 
d="M54 528h181v-527h-181v527z" />
    <glyph glyph-name="OE" unicode="&#x152;" horiz-adv-x="1000" 
d="M679 705h269v-135h-256v-142h239v-133h-240v-157h269v-135q-264 0 -396 -2q-22 -1 -65.5 -2t-65.5 -2q-121 10 -178 29q-37 13 -70.5 33.5t-70 57.5t-58.5 99t-22 141q0 97 38 176q44 92 133 134q67 33 197 44q60 2 91 1q18 0 52.5 -2t44.5 -2q1 0 89 -3zM507 139v434
q-38 2 -56 2q-78 2 -132 -36q-85 -59 -85 -184q0 -52 15 -92.5t40.5 -63.5t48.5 -35t48 -18q41 -11 121 -7z" />
    <glyph glyph-name="oe" unicode="&#x153;" horiz-adv-x="1021" 
d="M990 215h-370q13 -43 25 -59q16 -21 48 -33t49.5 -14t30.5 -2q56 0 161 39l-1 -122q-2 -1 -20.5 -6t-33 -8.5t-37 -8t-47 -7t-48.5 -2.5q-111 0 -167 39q-18 13 -49 46q-23 -25 -35 -34q-25 -20 -74 -36.5t-110 -16.5q-60 0 -115 19q-85 30 -129 99t-44 162q0 110 57 177
q41 51 106 76.5t135 25.5q105 0 167 -47q15 -10 41 -38q22 27 43 43q53 39 153 39q34 0 53 -3q120 -15 171 -107q17 -31 26.5 -72t11 -70.5t2.5 -78.5zM210 273q0 -34 6 -60q10 -43 39.5 -72t71.5 -29q58 0 93 52q25 39 25 111q0 36 -7 61q-3 11 -9 23.5t-18 30t-33 28.5
t-47 11q-48 0 -80 -34q-37 -42 -41 -122zM621 321h209q-5 39 -14 62t-35 39t-55 16q-25 0 -52 -15q-9 -6 -16.5 -13t-13 -13.5t-9.5 -15t-6 -14.5t-4 -14.5t-2.5 -12t-1 -11t-0.5 -8.5z" />
    <glyph glyph-name="Ydieresis" unicode="&#x178;" horiz-adv-x="708" 
d="M494 702h207l-254 -443v-259h-191v257l-255 445h220q11 -21 32.5 -63t32.5 -63q5 -9 20 -38.5t23 -46.5q9 -19 29 -72q9 25 15.5 41t14 32t11.5 24t16.5 31.5t20.5 39.5q10 19 58 115zM150 893h166v-142h-166v142zM390 891h166v-141h-166v141z" />
    <glyph glyph-name="circumflex" unicode="&#x2c6;" horiz-adv-x="271" 
d="M-23 716h153l115 -148h-112l-82 86l-82 -84h-116z" />
    <glyph glyph-name="caron" unicode="&#x2c7;" horiz-adv-x="271" 
d="M-31 717l80 -84l83 83h111l-115 -142h-158l-111 143h110z" />
    <glyph glyph-name="tilde" unicode="&#x2dc;" horiz-adv-x="271" 
d="M182 713h69q-5 -41 -11 -57q-32 -84 -113 -84q-34 1 -68 16q-59 25 -81 25q-21 0 -32 -8t-23 -29h-70q6 41 13 62q7 16 18 31t37.5 30.5t59.5 15.5q36 0 78 -18q5 -2 15.5 -6.5l17.5 -7.5t16.5 -5.5t17.5 -2.5q21 1 32 9.5t24 28.5z" />
    <glyph glyph-name="endash" unicode="&#x2013;" 
d="M37 361h523v-134h-523v134z" />
    <glyph glyph-name="emdash" unicode="&#x2014;" horiz-adv-x="500" 
d="M500 226h-500v128h500v-128z" />
    <glyph glyph-name="quoteleft" unicode="&#x2018;" horiz-adv-x="250" 
d="M114 703h140l-69 -273h-174z" />
    <glyph glyph-name="quoteright" unicode="&#x2019;" horiz-adv-x="250" 
d="M68 701h172l-103 -272h-136z" />
    <glyph glyph-name="quotesinglbase" unicode="&#x201a;" horiz-adv-x="250" 
d="M63 160h175l-101 -276h-141z" />
    <glyph glyph-name="quotedblleft" unicode="&#x201c;" horiz-adv-x="479" 
d="M110 701h138l-68 -268h-169zM339 702h137l-65 -269h-170z" />
    <glyph glyph-name="quotedblright" unicode="&#x201d;" horiz-adv-x="479" 
d="M67 701h168l-99 -268h-135zM294 701h170l-97 -268h-138z" />
    <glyph glyph-name="quotedblbase" unicode="&#x201e;" horiz-adv-x="479" 
d="M59 160h170l-100 -269h-136zM287 160h171l-101 -269h-135z" />
    <glyph glyph-name="dagger" unicode="&#x2020;" horiz-adv-x="542" 
d="M16 533h173v169h162v-168h172v-130h-172v-403h-163v403h-172v129z" />
    <glyph glyph-name="bullet" unicode="&#x2022;" horiz-adv-x="333" 
d="M322 352q-1 -64 -39 -107q-41 -48 -114 -48q-53 0 -92 29q-65 48 -65 127q0 33 11 57q14 35 51 66.5t95 31.5q31 0 62 -12q30 -13 50 -34t28 -44t10.5 -38t2.5 -28z" />
    <glyph glyph-name="ellipsis" unicode="&#x2026;" horiz-adv-x="1000" 
d="M913 75q0 -18 -6 -33q-10 -22 -29.5 -35t-41.5 -13q-16 0 -29 5q-53 18 -53 75q0 33 23.5 56.5t56.5 23.5q18 0 35 -8q20 -9 32 -29.5t12 -41.5zM580 75q-1 -18 -6 -29q-6 -19 -24 -35.5t-50 -16.5q-13 0 -30 6q-49 20 -49 74q0 34 23 56.5t58 22.5q17 0 31 -6
q17 -7 32 -25t15 -47zM246 75q0 -17 -6 -33q-21 -48 -74 -48q-16 0 -31 7q-48 20 -48 72q0 15 6 32q9 22 30 35.5t43 13.5q34 0 56.5 -22.5t23.5 -56.5z" />
    <glyph glyph-name="fraction" unicode="&#x2044;" horiz-adv-x="125" 
d="M151 699h93l-247 -696h-95z" />
    <glyph glyph-name="trademark" unicode="&#x2122;" horiz-adv-x="688" 
d="M674 374h-82l4 177l6 68l-14 -54l-56 -191h-75l-59 192l-14 51l7 -66l5 -177h-82v332h106l76 -239l71 239h107v-332zM187 374h-85v265h-102v67h287v-67h-100v-265z" />
    <glyph glyph-name="minus" unicode="&#x2212;" horiz-adv-x="500" 
d="M500 226h-500v128h500v-128z" />
    <glyph glyph-name="Acute" unicode="&#xf6c9;" horiz-adv-x="271" 
d="M93 891h228l-208 -142h-126z" />
    <glyph glyph-name="Caron" unicode="&#xf6ca;" horiz-adv-x="271" 
d="M-24 891l75 -80l75 81h126l-112 -142h-184l-105 141h125z" />
    <glyph glyph-name="Dieresis" unicode="&#xf6cb;" horiz-adv-x="271" 
d="M-152 893h166v-142h-166v142zM88 891h166v-141h-166v141z" />
    <glyph glyph-name="Grave" unicode="&#xf6ce;" horiz-adv-x="271" 
d="M18 887l105 -138h-126l-195 138h216z" />
    <glyph glyph-name="onefitted" unicode="&#xf6dc;" horiz-adv-x="521" 
d="M243 701h161v-699h-179v521l-141 -101l-83 122z" />
    <glyph glyph-name="fi" unicode="&#xfb01;" horiz-adv-x="729" 
d="M2 527h106q-2 75 5 105q18 68 67 101q53 36 148 36q39 0 92 -13l-8 -118q-35 7 -46 7q-23 0 -40 -10q-16 -9 -24.5 -29t-9.5 -35t-1 -41h130v-127h-129v-403h-183v403h-107v124zM490 741h184v-133h-184v133zM492 529h182v-528h-182v528z" />
    <glyph glyph-name="fl" unicode="&#xfb02;" horiz-adv-x="729" 
d="M2 527h106q-2 75 5 105q18 68 67 101q53 36 148 36q39 0 92 -13l-8 -118q-35 7 -46 7q-23 0 -40 -10q-16 -9 -24.5 -29t-9.5 -35t-1 -41h130v-127h-129v-403h-183v403h-107v124zM492 758h181v-757h-181v757z" />
    <glyph glyph-name="Circumflex" horiz-adv-x="271" 
d="M-38 892h185l105 -141h-125l-76 80l-75 -82h-126z" />
    <glyph glyph-name="Tilde" horiz-adv-x="271" 
d="M180 893l67 -1q0 -18 -3 -35q-7 -28 -26 -54.5t-43 -38.5q-20 -11 -48 -11q-32 0 -65 15l-19 9.5t-21.5 10t-18 5.5t-22.5 3q-24 0 -35.5 -9t-24.5 -31h-68q10 64 31 91q36 48 98 48q30 0 67 -15q52 -23 76 -23q20 0 30.5 8t24.5 28z" />
    </font>
</defs>
</svg>
